<svg width="320" height="303" viewBox="0 0 320 303" fill="none" xmlns="http://www.w3.org/2000/svg">
<path d="M32.0007 207.316H288V31.8947H32.0007V207.316ZM176 239.211V271.105H221.859C231.878 271.105 240 279.228 240 289.247V303H80.0006V289.247C80.0006 279.228 88.1229 271.105 98.1423 271.105H144V239.211H15.8728C13.7704 239.198 11.6912 238.772 9.75445 237.956C7.81774 237.141 6.06164 235.952 4.58694 234.459C3.11225 232.965 1.94799 231.196 1.16098 229.253C0.373967 227.31 -0.0202992 225.231 0.000804533 223.136V16.0749C0.000804533 7.19226 7.28079 0 15.8728 0H304.128C312.896 0 320 7.16037 320 16.059V223.136C320 232.018 312.72 239.211 304.128 239.211H176Z" fill="#035490"/>
<path d="M174.576 107.932C176.457 109.812 177.949 112.045 178.967 114.502C179.984 116.959 180.508 119.593 180.508 122.252C180.508 124.912 179.984 127.545 178.967 130.002C177.949 132.459 176.457 134.692 174.576 136.573M174.576 136.573L168.21 130.207M174.576 136.573L180.508 142.504M168.213 114.295C169.258 115.34 170.087 116.581 170.652 117.946C171.218 119.311 171.509 120.774 171.509 122.252C171.509 123.73 171.218 125.193 170.652 126.558C170.087 127.924 169.258 129.164 168.213 130.209L161.847 123.843M161.847 123.843C162.062 123.635 162.233 123.387 162.351 123.113C162.469 122.838 162.531 122.543 162.534 122.244C162.536 121.945 162.479 121.649 162.366 121.372C162.253 121.096 162.086 120.845 161.875 120.633C161.663 120.422 161.412 120.255 161.136 120.142C160.859 120.029 160.563 119.972 160.264 119.974C159.965 119.977 159.67 120.039 159.395 120.157C159.121 120.275 158.873 120.446 158.665 120.661M161.847 123.843L158.665 120.661M152.299 130.209C150.574 128.489 149.457 126.253 149.117 123.841M145.935 136.573C143.267 133.906 141.397 130.547 140.535 126.874C139.674 123.201 139.855 119.36 141.059 115.785M158.665 120.661L140.004 102" stroke="url(#paint0_linear_2501_2956)" stroke-width="4.50047" stroke-linecap="round" stroke-linejoin="round"/>
<path d="M174.576 107.932C176.457 109.812 177.949 112.045 178.967 114.502C179.984 116.959 180.508 119.593 180.508 122.252C180.508 124.912 179.984 127.545 178.967 130.002C177.949 132.459 176.457 134.692 174.576 136.573M174.576 136.573L168.21 130.207M174.576 136.573L180.508 142.504M168.213 114.295C169.258 115.34 170.087 116.581 170.652 117.946C171.218 119.311 171.509 120.774 171.509 122.252C171.509 123.73 171.218 125.193 170.652 126.558C170.087 127.924 169.258 129.164 168.213 130.209L161.847 123.843M161.847 123.843C162.062 123.635 162.233 123.387 162.351 123.113C162.469 122.838 162.531 122.543 162.534 122.244C162.536 121.945 162.479 121.649 162.366 121.372C162.253 121.096 162.086 120.845 161.875 120.633C161.663 120.422 161.412 120.255 161.136 120.142C160.859 120.029 160.563 119.972 160.264 119.974C159.965 119.977 159.67 120.039 159.395 120.157C159.121 120.275 158.873 120.446 158.665 120.661M161.847 123.843L158.665 120.661M152.299 130.209C150.574 128.489 149.457 126.253 149.117 123.841M145.935 136.573C143.267 133.906 141.397 130.547 140.535 126.874C139.674 123.201 139.855 119.36 141.059 115.785M158.665 120.661L140.004 102" stroke="#E5F7F9" stroke-opacity="0.1" stroke-width="4.50047" stroke-linecap="round" stroke-linejoin="round"/>
<defs>
<linearGradient id="paint0_linear_2501_2956" x1="134.793" y1="100.135" x2="182.969" y2="101.633" gradientUnits="userSpaceOnUse">
<stop stop-color="#FF7F00"/>
<stop offset="1" stop-color="#92F7F3"/>
</linearGradient>
</defs>
</svg>
