<svg width="320" height="304" viewBox="0 0 320 304" fill="none" xmlns="http://www.w3.org/2000/svg">
<path d="M32.0066 208H288.006V32H32.0066V208ZM176.006 240V272H221.864C231.884 272 240.006 280.122 240.006 290.141V304H80.0065V290.141C80.0065 280.122 88.1288 272 98.1482 272H144.006V240H15.8786C13.7762 239.987 11.697 239.56 9.76031 238.742C7.8236 237.923 6.0675 236.731 4.5928 235.232C3.11811 233.734 1.95385 231.959 1.16684 230.009C0.379826 228.06 -0.0144398 225.974 0.00666391 223.872V16.128C0.00666391 7.21599 7.28665 0 15.8786 0H304.134C312.902 0 320.006 7.18399 320.006 16.112V223.872C320.006 232.784 312.726 240 304.134 240H176.006Z" fill="#035490"/>
<path d="M159.533 149.116C166.993 149.116 174.148 146.152 179.424 140.877M159.533 149.116C152.072 149.116 144.917 146.152 139.642 140.877M159.533 149.116V159.345M179.424 140.877C184.699 135.602 187.663 128.447 187.663 120.986M179.424 140.877L186.657 148.11M187.663 120.986C187.663 113.526 184.699 106.371 179.424 101.095M187.663 120.986H197.892M179.424 101.095C174.148 95.8197 166.993 92.856 159.533 92.856M179.424 101.095L186.657 93.8619M159.533 92.856C152.072 92.856 144.917 95.8197 139.642 101.095M159.533 92.856V82.627M139.642 101.095C134.367 106.371 131.403 113.526 131.403 120.986M139.642 101.095L132.409 93.8619M131.403 120.986C131.403 128.447 134.367 135.602 139.642 140.877M131.403 120.986H121.174M139.642 140.877L132.409 148.11M165.5 82.627H153.566M136.627 89.6441L132.409 93.8619M132.409 93.8619L128.191 98.0797M121.174 115.019V126.953M128.191 143.892L132.409 148.11M132.409 148.11L136.627 152.328M153.566 159.345H165.5M182.439 152.328L186.657 148.11M186.657 148.11L190.875 143.892M197.892 126.953V115.019M190.875 98.0797L186.657 93.8619M186.657 93.8619L182.439 89.6441" stroke="url(#paint0_linear_2501_2935)" stroke-width="6.35322" stroke-linecap="round" stroke-linejoin="round"/>
<path d="M159.533 149.116C166.993 149.116 174.148 146.152 179.424 140.877M159.533 149.116C152.072 149.116 144.917 146.152 139.642 140.877M159.533 149.116V159.345M179.424 140.877C184.699 135.602 187.663 128.447 187.663 120.986M179.424 140.877L186.657 148.11M187.663 120.986C187.663 113.526 184.699 106.371 179.424 101.095M187.663 120.986H197.892M179.424 101.095C174.148 95.8197 166.993 92.856 159.533 92.856M179.424 101.095L186.657 93.8619M159.533 92.856C152.072 92.856 144.917 95.8197 139.642 101.095M159.533 92.856V82.627M139.642 101.095C134.367 106.371 131.403 113.526 131.403 120.986M139.642 101.095L132.409 93.8619M131.403 120.986C131.403 128.447 134.367 135.602 139.642 140.877M131.403 120.986H121.174M139.642 140.877L132.409 148.11M165.5 82.627H153.566M136.627 89.6441L132.409 93.8619M132.409 93.8619L128.191 98.0797M121.174 115.019V126.953M128.191 143.892L132.409 148.11M132.409 148.11L136.627 152.328M153.566 159.345H165.5M182.439 152.328L186.657 148.11M186.657 148.11L190.875 143.892M197.892 126.953V115.019M190.875 98.0797L186.657 93.8619M186.657 93.8619L182.439 89.6441" stroke="#E5F7F9" stroke-opacity="0.1" stroke-width="6.35322" stroke-linecap="round" stroke-linejoin="round"/>
<path d="M151 118.43C152.583 118.43 154.1 117.801 155.219 116.682C156.338 115.563 156.967 114.046 156.967 112.463C156.967 110.881 156.338 109.363 155.219 108.244C154.1 107.125 152.583 106.496 151 106.496C149.418 106.496 147.9 107.125 146.781 108.244C145.662 109.363 145.033 110.881 145.033 112.463C145.033 114.046 145.662 115.563 146.781 116.682C147.9 117.801 149.418 118.43 151 118.43Z" stroke="url(#paint1_linear_2501_2935)" stroke-width="6.35322" stroke-linecap="round" stroke-linejoin="round"/>
<path d="M151 118.43C152.583 118.43 154.1 117.801 155.219 116.682C156.338 115.563 156.967 114.046 156.967 112.463C156.967 110.881 156.338 109.363 155.219 108.244C154.1 107.125 152.583 106.496 151 106.496C149.418 106.496 147.9 107.125 146.781 108.244C145.662 109.363 145.033 110.881 145.033 112.463C145.033 114.046 145.662 115.563 146.781 116.682C147.9 117.801 149.418 118.43 151 118.43Z" stroke="#E5F7F9" stroke-opacity="0.1" stroke-width="6.35322" stroke-linecap="round" stroke-linejoin="round"/>
<path d="M162.095 138.035C161.756 138.035 161.431 137.901 161.191 137.661C160.951 137.421 160.816 137.096 160.816 136.757C160.816 136.417 160.951 136.092 161.191 135.852C161.431 135.613 161.756 135.478 162.095 135.478M162.095 138.035C162.434 138.035 162.759 137.901 162.999 137.661C163.239 137.421 163.374 137.096 163.374 136.757C163.374 136.417 163.239 136.092 162.999 135.852C162.759 135.613 162.434 135.478 162.095 135.478M175.734 123.118C175.395 123.118 175.069 122.983 174.83 122.743C174.59 122.504 174.455 122.178 174.455 121.839C174.455 121.5 174.59 121.175 174.83 120.935C175.069 120.695 175.395 120.561 175.734 120.561M175.734 123.118C176.073 123.118 176.398 122.983 176.638 122.743C176.878 122.504 177.012 122.178 177.012 121.839C177.012 121.5 176.878 121.175 176.638 120.935C176.398 120.695 176.073 120.561 175.734 120.561" stroke="url(#paint2_linear_2501_2935)" stroke-width="6.35322"/>
<path d="M162.095 138.035C161.756 138.035 161.431 137.901 161.191 137.661C160.951 137.421 160.816 137.096 160.816 136.757C160.816 136.417 160.951 136.092 161.191 135.852C161.431 135.613 161.756 135.478 162.095 135.478M162.095 138.035C162.434 138.035 162.759 137.901 162.999 137.661C163.239 137.421 163.374 137.096 163.374 136.757C163.374 136.417 163.239 136.092 162.999 135.852C162.759 135.613 162.434 135.478 162.095 135.478M175.734 123.118C175.395 123.118 175.069 122.983 174.83 122.743C174.59 122.504 174.455 122.178 174.455 121.839C174.455 121.5 174.59 121.175 174.83 120.935C175.069 120.695 175.395 120.561 175.734 120.561M175.734 123.118C176.073 123.118 176.398 122.983 176.638 122.743C176.878 122.504 177.012 122.178 177.012 121.839C177.012 121.5 176.878 121.175 176.638 120.935C176.398 120.695 176.073 120.561 175.734 120.561" stroke="#E5F7F9" stroke-opacity="0.1" stroke-width="6.35322"/>
<defs>
<linearGradient id="paint0_linear_2501_2935" x1="111.313" y1="79.0939" x2="202.552" y2="81.9308" gradientUnits="userSpaceOnUse">
<stop stop-color="#FF7F00"/>
<stop offset="1" stop-color="#92F7F3"/>
</linearGradient>
<linearGradient id="paint1_linear_2501_2935" x1="143.499" y1="105.947" x2="157.692" y2="106.388" gradientUnits="userSpaceOnUse">
<stop stop-color="#FF7F00"/>
<stop offset="1" stop-color="#92F7F3"/>
</linearGradient>
<linearGradient id="paint2_linear_2501_2935" x1="158.735" y1="119.756" x2="177.999" y2="120.311" gradientUnits="userSpaceOnUse">
<stop stop-color="#FF7F00"/>
<stop offset="1" stop-color="#92F7F3"/>
</linearGradient>
</defs>
</svg>
