<svg width="320" height="304" viewBox="0 0 320 304" fill="none" xmlns="http://www.w3.org/2000/svg">
<path d="M32.0066 208H288.006V32H32.0066V208ZM176.006 240V272H221.864C231.884 272 240.006 280.122 240.006 290.141V304H80.0065V290.141C80.0065 280.122 88.1288 272 98.1482 272H144.006V240H15.8786C13.7762 239.987 11.697 239.56 9.76031 238.741C7.8236 237.923 6.0675 236.731 4.5928 235.232C3.11811 233.734 1.95385 231.959 1.16684 230.009C0.379826 228.06 -0.0144398 225.974 0.00666391 223.872V16.128C0.00666391 7.21599 7.28665 0 15.8786 0H304.134C312.902 0 320.006 7.18399 320.006 16.112V223.872C320.006 232.784 312.726 240 304.134 240H176.006Z" fill="#035490"/>
<g clip-path="url(#clip0_2501_2925)">
<path d="M142.271 87.4785L139.985 87.6841L139.265 89.3471L141.485 89.2957L142.271 87.4785ZM146.474 90.2814L143.517 90.6956L142.531 93.1357L145.434 92.7729L146.474 90.2814ZM139.785 93.3413L137.608 93.4925L136.883 95.2069L139.063 95.1555L139.785 93.3413ZM151.045 94.2756L147.154 94.4812L145.963 97.3839L149.803 97.2267L151.045 94.2756ZM156.7 95.987L151.925 96.1956L150.214 100.299L155.04 100.033L156.697 95.987H156.7ZM144.037 96.0988L141.083 96.5615L140.046 98.9985L142.997 98.6357L144.037 96.0988ZM162.614 98.1186L156.96 98.5268L155.034 103.144L160.688 102.678L162.614 98.1186ZM171.458 98.7808C171.125 98.7808 170.787 98.7808 170.448 98.7868L168.129 104.381C172.344 104.29 175.748 104.65 178.327 105.53L173.042 118.232C170.155 117.313 166.747 116.889 162.883 117.04L161.25 120.986C164.687 120.72 168.143 121.126 171.425 122.184L166.396 134.32C162.596 133.504 159.194 133.126 156.155 133.28L153.791 138.986C163.959 137.637 172.985 141.471 181.031 150.394L197.567 110.561C190.537 102.775 181.844 98.8292 171.452 98.7808H171.458ZM169.511 98.7868L163.391 99.1497L161.314 104.229L167.436 103.655L169.511 98.7868ZM137.451 98.938L135.277 99.0469L134.6 100.758H136.726L137.451 98.938ZM148.608 100.138L144.717 100.347L143.523 103.247L147.363 103.095L148.608 100.138ZM141.751 101.702L138.745 102.167L137.705 104.607L140.668 104.241L141.751 101.702ZM154.26 101.901L149.482 102.11L147.768 106.146L152.594 105.889L154.256 101.898L154.26 101.901ZM160.171 103.981L154.517 104.39L152.594 109.007L158.299 108.541L160.171 103.981ZM167.071 104.556L160.993 104.967L158.877 110.053L165.045 109.478L167.071 104.55V104.556ZM135.111 104.755L132.877 104.861L132.157 106.567H134.334L135.111 104.755ZM146.313 105.641L142.374 105.898L141.182 108.801L145.074 108.698L146.313 105.641ZM182.11 106.412C185.293 107.426 188.177 109.209 190.507 111.604L185.215 124.415C183.35 122.649 181.738 121.509 180.344 120.941L176.713 119.435L182.11 106.412ZM139.311 107.507L136.36 107.973L135.32 110.413L138.225 110.05L139.314 107.507H139.311ZM151.968 107.507L147.148 107.664L145.488 111.758L150.308 111.498L151.968 107.507ZM157.885 109.527L152.182 109.986L150.311 114.546L155.965 114.138L157.888 109.521L157.885 109.527ZM164.679 110.358L158.611 110.721L156.485 115.755L162.659 115.284L164.679 110.358ZM132.62 110.673L130.449 110.772L129.723 112.432L131.894 112.384L132.62 110.673ZM143.882 111.498L139.985 111.71L138.745 114.612L142.637 114.522L143.882 111.498ZM149.537 113.312L144.711 113.463L143.048 117.564L147.88 117.31L149.537 113.312ZM136.88 113.424L133.92 113.835L132.94 116.269L135.843 115.91L136.88 113.424ZM155.445 115.338L149.791 115.804L147.816 120.421L153.579 119.955L155.445 115.338ZM162.299 116.17L156.173 116.532L154.099 121.561L160.222 121.041L162.299 116.17ZM130.343 116.263L128.108 116.375L127.389 118.084L129.566 118.035L130.343 116.263ZM141.448 117.358L137.551 117.564L136.311 120.521L140.257 120.369L141.448 117.358ZM134.54 118.969L131.588 119.435L130.603 121.869L133.505 121.506L134.54 118.969ZM147.097 119.181L142.271 119.381L140.563 123.481L145.437 123.227L147.097 119.181ZM153.014 121.195L147.302 121.661L145.437 126.275L151.139 125.821L153.014 121.195ZM159.908 121.869L153.785 122.232L151.714 127.266L157.885 126.746L159.908 121.869ZM127.906 122.02L125.674 122.181L125 123.895L127.177 123.834L127.903 122.02H127.906ZM139.108 122.958L135.223 123.169L134.029 126.12L137.92 125.969L139.108 122.958ZM175.159 123.169C178.424 124.046 181.279 125.652 183.667 128.046L178.482 140.694C175.785 138.414 172.979 136.703 169.973 135.663L175.159 123.169ZM144.814 124.726L139.985 124.983L138.325 128.975L143.096 128.775L144.811 124.729L144.814 124.726ZM132.163 124.769L129.151 125.24L128.217 127.629L131.123 127.309L132.163 124.769ZM150.728 126.795L144.971 127.26L143.105 131.877L148.82 131.412L150.731 126.795H150.728ZM157.474 127.774L151.351 128.146L149.277 133.232L155.402 132.706L157.474 127.774ZM136.723 128.766L132.792 128.972L131.591 131.935L135.477 131.771L136.723 128.766ZM142.38 130.532L137.608 130.737L135.897 134.771L140.72 134.577L142.38 130.532ZM148.285 132.651L142.64 133.066L140.72 137.631L146.374 137.217L148.285 132.651ZM155.028 133.589L148.965 133.958L146.84 139.037L153.008 138.463L155.034 133.595L155.028 133.589Z" fill="url(#paint0_linear_2501_2925)"/>
<path d="M142.271 87.4785L139.985 87.6841L139.265 89.3471L141.485 89.2957L142.271 87.4785ZM146.474 90.2814L143.517 90.6956L142.531 93.1357L145.434 92.7729L146.474 90.2814ZM139.785 93.3413L137.608 93.4925L136.883 95.2069L139.063 95.1555L139.785 93.3413ZM151.045 94.2756L147.154 94.4812L145.963 97.3839L149.803 97.2267L151.045 94.2756ZM156.7 95.987L151.925 96.1956L150.214 100.299L155.04 100.033L156.697 95.987H156.7ZM144.037 96.0988L141.083 96.5615L140.046 98.9985L142.997 98.6357L144.037 96.0988ZM162.614 98.1186L156.96 98.5268L155.034 103.144L160.688 102.678L162.614 98.1186ZM171.458 98.7808C171.125 98.7808 170.787 98.7808 170.448 98.7868L168.129 104.381C172.344 104.29 175.748 104.65 178.327 105.53L173.042 118.232C170.155 117.313 166.747 116.889 162.883 117.04L161.25 120.986C164.687 120.72 168.143 121.126 171.425 122.184L166.396 134.32C162.596 133.504 159.194 133.126 156.155 133.28L153.791 138.986C163.959 137.637 172.985 141.471 181.031 150.394L197.567 110.561C190.537 102.775 181.844 98.8292 171.452 98.7808H171.458ZM169.511 98.7868L163.391 99.1497L161.314 104.229L167.436 103.655L169.511 98.7868ZM137.451 98.938L135.277 99.0469L134.6 100.758H136.726L137.451 98.938ZM148.608 100.138L144.717 100.347L143.523 103.247L147.363 103.095L148.608 100.138ZM141.751 101.702L138.745 102.167L137.705 104.607L140.668 104.241L141.751 101.702ZM154.26 101.901L149.482 102.11L147.768 106.146L152.594 105.889L154.256 101.898L154.26 101.901ZM160.171 103.981L154.517 104.39L152.594 109.007L158.299 108.541L160.171 103.981ZM167.071 104.556L160.993 104.967L158.877 110.053L165.045 109.478L167.071 104.55V104.556ZM135.111 104.755L132.877 104.861L132.157 106.567H134.334L135.111 104.755ZM146.313 105.641L142.374 105.898L141.182 108.801L145.074 108.698L146.313 105.641ZM182.11 106.412C185.293 107.426 188.177 109.209 190.507 111.604L185.215 124.415C183.35 122.649 181.738 121.509 180.344 120.941L176.713 119.435L182.11 106.412ZM139.311 107.507L136.36 107.973L135.32 110.413L138.225 110.05L139.314 107.507H139.311ZM151.968 107.507L147.148 107.664L145.488 111.758L150.308 111.498L151.968 107.507ZM157.885 109.527L152.182 109.986L150.311 114.546L155.965 114.138L157.888 109.521L157.885 109.527ZM164.679 110.358L158.611 110.721L156.485 115.755L162.659 115.284L164.679 110.358ZM132.62 110.673L130.449 110.772L129.723 112.432L131.894 112.384L132.62 110.673ZM143.882 111.498L139.985 111.71L138.745 114.612L142.637 114.522L143.882 111.498ZM149.537 113.312L144.711 113.463L143.048 117.564L147.88 117.31L149.537 113.312ZM136.88 113.424L133.92 113.835L132.94 116.269L135.843 115.91L136.88 113.424ZM155.445 115.338L149.791 115.804L147.816 120.421L153.579 119.955L155.445 115.338ZM162.299 116.17L156.173 116.532L154.099 121.561L160.222 121.041L162.299 116.17ZM130.343 116.263L128.108 116.375L127.389 118.084L129.566 118.035L130.343 116.263ZM141.448 117.358L137.551 117.564L136.311 120.521L140.257 120.369L141.448 117.358ZM134.54 118.969L131.588 119.435L130.603 121.869L133.505 121.506L134.54 118.969ZM147.097 119.181L142.271 119.381L140.563 123.481L145.437 123.227L147.097 119.181ZM153.014 121.195L147.302 121.661L145.437 126.275L151.139 125.821L153.014 121.195ZM159.908 121.869L153.785 122.232L151.714 127.266L157.885 126.746L159.908 121.869ZM127.906 122.02L125.674 122.181L125 123.895L127.177 123.834L127.903 122.02H127.906ZM139.108 122.958L135.223 123.169L134.029 126.12L137.92 125.969L139.108 122.958ZM175.159 123.169C178.424 124.046 181.279 125.652 183.667 128.046L178.482 140.694C175.785 138.414 172.979 136.703 169.973 135.663L175.159 123.169ZM144.814 124.726L139.985 124.983L138.325 128.975L143.096 128.775L144.811 124.729L144.814 124.726ZM132.163 124.769L129.151 125.24L128.217 127.629L131.123 127.309L132.163 124.769ZM150.728 126.795L144.971 127.26L143.105 131.877L148.82 131.412L150.731 126.795H150.728ZM157.474 127.774L151.351 128.146L149.277 133.232L155.402 132.706L157.474 127.774ZM136.723 128.766L132.792 128.972L131.591 131.935L135.477 131.771L136.723 128.766ZM142.38 130.532L137.608 130.737L135.897 134.771L140.72 134.577L142.38 130.532ZM148.285 132.651L142.64 133.066L140.72 137.631L146.374 137.217L148.285 132.651ZM155.028 133.589L148.965 133.958L146.84 139.037L153.008 138.463L155.034 133.595L155.028 133.589Z" fill="#E5F7F9" fill-opacity="0.1"/>
</g>
<path d="M100.48 168.057L95.0236 150.482H96.689L101.366 166.379L105.854 150.954H107.839L112.22 166.368L116.886 150.482H118.539L113.094 168.057H111.405L106.882 152.454L102.157 168.057H100.48ZM120.465 168.057V155.112H121.941V168.057H120.465ZM120.465 152.466V150.482H121.929V152.466H120.465ZM125.579 168.057V155.112H126.854L127.055 157.108C127.52 156.415 128.142 155.872 128.921 155.478C129.709 155.076 130.555 154.876 131.461 154.876C132.949 154.876 134.043 155.285 134.744 156.104C135.445 156.923 135.795 158.23 135.795 160.025V168.057H134.319V159.364C134.279 158.214 134.035 157.387 133.587 156.883C133.138 156.379 132.402 156.128 131.378 156.128C130.205 156.128 129.244 156.423 128.496 157.013C127.756 157.604 127.291 158.368 127.102 159.305C127.071 159.675 127.055 160.061 127.055 160.462V168.057H125.579ZM144.075 168.328C142.35 168.328 141.004 167.73 140.035 166.533C139.075 165.336 138.594 163.683 138.594 161.572C138.594 159.588 139.09 157.978 140.083 156.742C141.083 155.498 142.398 154.876 144.027 154.876C144.831 154.876 145.634 155.049 146.437 155.395C147.24 155.742 147.85 156.281 148.268 157.013V156.624V150.092L149.685 149.962V168.057H148.468L148.256 166.108C147.807 166.84 147.197 167.395 146.425 167.773C145.661 168.143 144.878 168.328 144.075 168.328ZM144.039 167.171C144.772 167.171 145.413 167.037 145.964 166.769C146.516 166.502 146.957 166.124 147.287 165.635C147.618 165.147 147.862 164.588 148.02 163.958C148.185 163.32 148.268 162.616 148.268 161.844C148.268 157.994 146.85 156.068 144.016 156.068C143.346 156.068 142.756 156.23 142.244 156.553C141.732 156.868 141.327 157.297 141.027 157.84C140.736 158.376 140.52 158.962 140.378 159.6C140.236 160.23 140.165 160.895 140.165 161.596C140.165 162.202 140.209 162.773 140.295 163.309C140.382 163.836 140.524 164.34 140.72 164.82C140.917 165.301 141.161 165.714 141.453 166.061C141.744 166.399 142.11 166.671 142.551 166.876C142.992 167.072 143.488 167.171 144.039 167.171ZM158.531 167.171C159.476 167.171 160.272 166.923 160.917 166.427C161.571 165.923 162.043 165.261 162.335 164.442C162.634 163.624 162.783 162.683 162.783 161.62C162.783 159.95 162.429 158.608 161.72 157.592C161.012 156.576 159.933 156.068 158.484 156.068C157.539 156.068 156.732 156.324 156.063 156.836C155.401 157.34 154.917 158.005 154.61 158.832C154.303 159.651 154.149 160.592 154.149 161.655C154.149 163.269 154.524 164.592 155.272 165.624C156.027 166.655 157.114 167.171 158.531 167.171ZM158.425 168.34C157.252 168.34 156.216 168.045 155.319 167.454C154.429 166.864 153.748 166.065 153.275 165.057C152.811 164.041 152.579 162.895 152.579 161.62C152.579 160.659 152.712 159.769 152.98 158.95C153.256 158.124 153.646 157.411 154.149 156.813C154.653 156.206 155.279 155.734 156.027 155.395C156.775 155.049 157.606 154.876 158.52 154.876C159.732 154.876 160.783 155.175 161.673 155.773C162.563 156.364 163.228 157.163 163.669 158.171C164.118 159.171 164.342 160.313 164.342 161.596C164.342 162.887 164.114 164.037 163.657 165.045C163.201 166.053 162.52 166.856 161.614 167.454C160.709 168.045 159.646 168.34 158.425 168.34ZM169.173 168.057L165.559 155.112H167.094L170.083 166.675C172.232 159.761 173.433 155.907 173.685 155.112H175.48C177.834 162.797 179.023 166.639 179.047 166.639L181.905 155.112H183.429L179.874 168.057H178.173C178.149 168.065 177.594 166.25 176.508 162.612C175.421 158.974 174.791 156.836 174.618 156.198C174.523 156.624 174.165 157.824 173.543 159.801C172.921 161.769 172.323 163.639 171.748 165.411C171.173 167.183 170.882 168.065 170.874 168.057H169.173ZM189.216 168.352C188.382 168.352 187.598 168.25 186.866 168.045C186.134 167.84 185.555 167.596 185.13 167.313L185.342 166.084C186.642 166.761 187.886 167.1 189.075 167.1C191.208 167.1 192.315 166.309 192.394 164.726C192.394 164.065 192.177 163.545 191.744 163.167C191.319 162.789 190.46 162.395 189.169 161.986C188.492 161.75 188.118 161.62 188.047 161.596C186.023 160.982 185.004 159.891 184.988 158.324C184.988 157.419 185.386 156.62 186.181 155.927C186.984 155.226 188.067 154.876 189.429 154.876C190.791 154.876 192.071 155.143 193.268 155.679L192.771 156.765C191.559 156.309 190.433 156.08 189.394 156.08C188.48 156.08 187.76 156.285 187.232 156.694C186.712 157.104 186.453 157.655 186.453 158.348C186.453 158.931 186.622 159.379 186.96 159.694C187.307 160.002 187.988 160.297 189.004 160.58C189.114 160.612 189.315 160.683 189.606 160.793C189.905 160.903 190.071 160.962 190.102 160.97C191.464 161.387 192.413 161.883 192.949 162.458C193.492 163.025 193.764 163.801 193.764 164.785C193.74 165.919 193.315 166.797 192.488 167.419C191.669 168.041 190.579 168.352 189.216 168.352ZM203.46 168.057L210.063 160.061C209.622 160.344 209.118 160.576 208.551 160.757C207.992 160.931 207.445 161.017 206.909 161.017C205.956 161.017 205.067 160.809 204.24 160.391C203.413 159.966 202.736 159.344 202.208 158.525C201.689 157.698 201.429 156.757 201.429 155.702C201.429 154.954 201.563 154.246 201.831 153.576C202.098 152.907 202.476 152.32 202.964 151.817C203.453 151.313 204.059 150.915 204.783 150.624C205.516 150.324 206.319 150.175 207.193 150.175C208.106 150.175 208.925 150.332 209.649 150.647C210.374 150.954 210.96 151.376 211.409 151.911C211.866 152.439 212.212 153.045 212.449 153.73C212.685 154.407 212.803 155.128 212.803 155.891C212.803 157.049 212.626 158.025 212.271 158.82C211.925 159.616 211.189 160.813 210.063 162.411L208.893 163.828C208.114 164.765 207.334 165.706 206.555 166.651C205.775 167.588 205.386 168.057 205.386 168.057H203.46ZM207.145 159.742C207.846 159.742 208.468 159.628 209.012 159.399C209.563 159.171 210.004 158.864 210.334 158.478C210.665 158.092 210.913 157.659 211.079 157.179C211.252 156.698 211.338 156.191 211.338 155.655C211.338 155.104 211.248 154.58 211.067 154.084C210.893 153.58 210.638 153.131 210.299 152.738C209.968 152.344 209.535 152.029 209 151.793C208.472 151.557 207.882 151.439 207.228 151.439C206.362 151.439 205.594 151.647 204.925 152.065C204.256 152.482 203.752 153.009 203.413 153.647C203.082 154.285 202.917 154.966 202.917 155.691C202.917 156.864 203.303 157.832 204.075 158.596C204.846 159.36 205.87 159.742 207.145 159.742ZM220.468 168.328C218.366 168.328 216.657 167.801 215.342 166.746L215.874 165.612C217.102 166.596 218.657 167.088 220.539 167.088C221.823 167.088 222.85 166.659 223.622 165.801C224.393 164.935 224.779 163.805 224.779 162.411C224.779 161.246 224.445 160.277 223.775 159.505C223.114 158.726 222.291 158.336 221.307 158.336C220.59 158.336 219.98 158.435 219.476 158.631C218.98 158.828 218.413 159.171 217.775 159.659L216.299 159.553L216.701 150.482H225.689L225.535 151.793H217.988L217.634 158.23C218.634 157.474 219.764 157.084 221.023 157.061C222.102 157.045 223.059 157.285 223.893 157.781C224.728 158.269 225.358 158.915 225.783 159.718C226.208 160.521 226.421 161.399 226.421 162.352C226.421 164.163 225.882 165.612 224.803 166.698C223.732 167.785 222.287 168.328 220.468 168.328Z" fill="#F4F8FE"/>
<defs>
<linearGradient id="paint0_linear_2501_2925" x1="115.672" y1="84.5811" x2="201.948" y2="87.6752" gradientUnits="userSpaceOnUse">
<stop stop-color="#FF7F00"/>
<stop offset="1" stop-color="#92F7F3"/>
</linearGradient>
<clipPath id="clip0_2501_2925">
<rect width="72.5668" height="72.5668" fill="white" transform="translate(125 82.6602)"/>
</clipPath>
</defs>
</svg>
