<svg width="320" height="304" viewBox="0 0 320 304" fill="none" xmlns="http://www.w3.org/2000/svg">
<path d="M32.0085 208H288.008V32H32.0085V208ZM176.008 240V272H221.866C231.886 272 240.008 280.122 240.008 290.141V304H80.0084V290.141C80.0084 280.122 88.1307 272 98.1501 272H144.008V240H15.8806C13.7782 239.987 11.699 239.56 9.76227 238.741C7.82555 237.923 6.06945 236.731 4.59476 235.232C3.12006 233.734 1.9558 231.959 1.16879 230.009C0.381779 228.06 -0.0124867 225.974 0.00861703 223.872V16.128C0.00861703 7.21599 7.2886 0 15.8806 0H304.136C312.904 0 320.008 7.18399 320.008 16.112V223.872C320.008 232.784 312.728 240 304.136 240H176.008Z" fill="#035490"/>
<path d="M189.003 96.6619C189.003 96.6619 200.851 98.4573 200.849 101.935C200.844 107.021 183.513 104.537 183.513 109.62C183.513 114.704 200.849 112.224 200.849 117.31C200.849 122.396 183.516 119.911 183.516 124.995C183.516 130.078 200.849 127.598 200.849 132.684C200.849 137.77 183.716 135.29 183.516 140.369C183.308 145.647 201.107 143.881 200.849 149.158C200.688 152.433 189.582 153.988 189.582 153.988M170.248 165.849L139.729 139.716H119.143V110.274H139.731L170.25 84.1406L170.248 165.849Z" stroke="url(#paint0_linear_2501_4271)" stroke-width="2.35197" stroke-linecap="round" stroke-linejoin="round"/>
<path d="M189.003 96.6619C189.003 96.6619 200.851 98.4573 200.849 101.935C200.844 107.021 183.513 104.537 183.513 109.62C183.513 114.704 200.849 112.224 200.849 117.31C200.849 122.396 183.516 119.911 183.516 124.995C183.516 130.078 200.849 127.598 200.849 132.684C200.849 137.77 183.716 135.29 183.516 140.369C183.308 145.647 201.107 143.881 200.849 149.158C200.688 152.433 189.582 153.988 189.582 153.988M170.248 165.849L139.729 139.716H119.143V110.274H139.731L170.25 84.1406L170.248 165.849Z" stroke="#E5F7F9" stroke-opacity="0.1" stroke-width="2.35197" stroke-linecap="round" stroke-linejoin="round"/>
<defs>
<linearGradient id="paint0_linear_2501_4271" x1="108.64" y1="80.3777" x2="205.815" y2="83.3993" gradientUnits="userSpaceOnUse">
<stop stop-color="#FF7F00"/>
<stop offset="1" stop-color="#92F7F3"/>
</linearGradient>
</defs>
</svg>
