<svg width="20" height="12" viewBox="0 0 20 12" fill="none" xmlns="http://www.w3.org/2000/svg">
<path d="M18.6709 6.87874C18.7861 6.76347 18.8776 6.62661 18.94 6.476C19.0024 6.32538 19.0345 6.16395 19.0345 6.00093C19.0345 5.8379 19.0024 5.67647 18.94 5.52586C18.8776 5.37524 18.7861 5.23839 18.6709 5.12312L13.9894 0.441618C13.7566 0.208817 13.4408 0.078031 13.1116 0.078031C12.7823 0.078031 12.4666 0.208817 12.2338 0.441618C12.001 0.674422 11.8702 0.990171 11.8702 1.3194C11.8702 1.64864 12.001 1.96438 12.2338 2.19719L15 4.5011L1.24138 4.75955C0.912145 4.75955 0.596395 4.89034 0.363591 5.12314C0.130788 5.35595 -2.73289e-07 5.6717 -2.58898e-07 6.00093C-2.44507e-07 6.33016 0.130788 6.64591 0.363591 6.87872C0.596395 7.11152 0.912145 7.24231 1.24138 7.24231L15 7.5011L12.2338 9.80467C12.001 10.0375 11.8702 10.3532 11.8702 10.6825C11.8702 11.0117 12.001 11.3274 12.2338 11.5602C12.4666 11.793 12.7823 11.9238 13.1116 11.9238C13.4408 11.9238 13.7566 11.793 13.9894 11.5602L18.6709 6.87874Z" fill="#035490"/>
</svg>
