<svg width="32" height="32" viewBox="0 0 32 32" fill="none" xmlns="http://www.w3.org/2000/svg">
<path d="M16.7804 21.6742L25.6805 12.5844C25.8865 12.3742 26 12.0935 26 11.7943C26 11.4951 25.8865 11.2144 25.6805 11.0042L25.0252 10.3348C24.5982 9.8992 23.9042 9.8992 23.4779 10.3348L16.0041 17.9677L8.52209 10.3263C8.31608 10.1161 8.04145 10 7.7486 10C7.45543 10 7.1808 10.1161 6.97462 10.3263L6.31951 10.9957C6.11349 11.2061 6 11.4866 6 11.7858C6 12.0851 6.11349 12.3657 6.31951 12.576L15.2277 21.6742C15.4344 21.8849 15.7103 22.0007 16.0037 22C16.2981 22.0007 16.5739 21.8849 16.7804 21.6742Z" fill="#FF7F00"/>
</svg>
