<svg width="772" height="743" viewBox="0 0 772 743" fill="none" xmlns="http://www.w3.org/2000/svg">
<g opacity="0.2">
<g style="mix-blend-mode:screen">
<path d="M399.045 219.603C399.045 215.941 397.596 212.43 395.015 209.841C392.435 207.251 388.935 205.797 385.285 205.797C381.636 205.797 378.136 207.251 375.556 209.841C372.975 212.43 371.525 215.941 371.525 219.603C373.23 241.034 377.86 262.129 385.285 282.296C392.711 262.129 397.341 241.034 399.045 219.603Z" fill="#0A1C4E"/>
<path d="M385.285 385.296C392.885 385.296 399.045 379.114 399.045 371.49C399.045 363.865 392.885 357.684 385.285 357.684C377.686 357.684 371.525 363.865 371.525 371.49C371.525 379.114 377.686 385.296 385.285 385.296Z" fill="#0A1C4E"/>
<path d="M82.5645 495.736H688.007V67.7513C688.007 64.0897 686.557 60.5781 683.977 57.989C681.396 55.3999 677.896 53.9453 674.247 53.9453H96.3245C92.6751 53.9453 89.1752 55.3999 86.5947 57.989C84.0142 60.5781 82.5645 64.0897 82.5645 67.7513V495.736ZM177.908 405.597L349.771 114.609C353.424 108.422 358.62 103.296 364.847 99.7356C371.075 96.1752 378.118 94.3028 385.286 94.3028C392.453 94.3028 399.497 96.1752 405.724 99.7356C411.951 103.296 417.147 108.422 420.8 114.609L592.663 405.597C596.376 411.886 598.365 419.049 598.426 426.358C598.487 433.667 596.619 440.863 593.012 447.213C589.405 453.564 584.187 458.844 577.888 462.517C571.589 466.189 564.434 468.124 557.149 468.124H213.423C206.137 468.124 198.982 466.189 192.683 462.517C186.384 458.844 181.166 453.564 177.559 447.213C173.952 440.863 172.084 433.667 172.145 426.358C172.207 419.049 174.195 411.886 177.908 405.597Z" fill="#0A1C4E"/>
<path d="M213.426 440.495H557.152C559.581 440.494 561.966 439.849 564.065 438.624C566.165 437.399 567.904 435.639 569.106 433.521C570.308 431.404 570.93 429.005 570.909 426.568C570.888 424.131 570.224 421.744 568.985 419.648L397.122 128.659C395.904 126.599 394.172 124.893 392.098 123.707C390.023 122.522 387.676 121.898 385.289 121.898C382.901 121.898 380.555 122.522 378.48 123.707C376.405 124.893 374.673 126.599 373.455 128.659L201.592 419.648C200.353 421.744 199.69 424.131 199.668 426.568C199.647 429.005 200.269 431.404 201.471 433.521C202.673 435.639 204.412 437.399 206.512 438.624C208.612 439.849 210.997 440.494 213.426 440.495ZM385.289 178.181C396.237 178.181 406.737 182.545 414.478 190.312C422.22 198.08 426.569 208.614 426.569 219.599C426.569 220.566 419.593 316.241 385.289 316.241C350.985 316.241 344.009 220.566 344.009 219.599C344.009 208.614 348.358 198.08 356.099 190.312C363.841 182.545 374.341 178.181 385.289 178.181ZM385.289 330.047C393.453 330.047 401.434 332.476 408.223 337.027C415.011 341.578 420.302 348.047 423.427 355.615C426.551 363.183 427.368 371.511 425.776 379.545C424.183 387.579 420.251 394.959 414.478 400.752C408.705 406.544 401.35 410.489 393.342 412.087C385.334 413.685 377.034 412.865 369.491 409.73C361.949 406.595 355.501 401.286 350.965 394.475C346.43 387.664 344.009 379.656 344.009 371.465C344.009 360.48 348.358 349.945 356.099 342.178C363.841 334.411 374.341 330.047 385.289 330.047Z" fill="#0A1C4E"/>
<path d="M266.698 661.411L290.406 613.822C291.549 611.527 293.307 609.597 295.482 608.248C297.657 606.9 300.164 606.186 302.721 606.187H467.842C470.411 606.173 472.932 606.881 475.121 608.23C477.309 609.579 479.078 611.517 480.226 613.822L503.866 661.411H762.059L693.259 523.352H77.3042L8.50391 661.411H266.698ZM688.003 633.799H660.483V606.187H688.003V633.799ZM646.723 550.963H674.243V578.575H646.723V550.963ZM632.963 633.799H605.442V606.187H632.963V633.799ZM591.682 550.963H619.203V578.575H591.682V550.963ZM536.642 550.963H564.162V578.575H536.642V550.963ZM522.882 606.187H577.922V633.799H522.882V606.187ZM481.602 550.963H509.122V578.575H481.602V550.963ZM426.562 550.963H454.082V578.575H426.562V550.963ZM371.522 550.963H399.042V578.575H371.522V550.963ZM316.481 550.963H344.001V578.575H316.481V550.963ZM261.441 550.963H288.961V578.575H261.441V550.963ZM206.401 550.963H233.921V578.575H206.401V550.963ZM192.641 606.187H247.681V633.799H192.641V606.187ZM151.361 550.963H178.881V578.575H151.361V550.963ZM137.601 606.187H165.121V633.799H137.601V606.187ZM96.3206 550.963H123.841V578.575H96.3206V550.963ZM82.5605 606.187H110.081V633.799H82.5605V606.187Z" fill="#0A1C4E"/>
<path d="M0 689.023H770.563V716.635H0V689.023Z" fill="#0A1C4E"/>
<path d="M311.225 633.785L297.465 661.397H473.098L459.338 633.785H311.225Z" fill="#0A1C4E"/>
</g>
</g>
</svg>
