<svg width="32" height="32" viewBox="0 0 32 32" fill="none" xmlns="http://www.w3.org/2000/svg">
<path d="M14.8303 24.8945C14.984 25.0482 15.1665 25.1701 15.3673 25.2533C15.5681 25.3365 15.7833 25.3793 16.0007 25.3793C16.2181 25.3793 16.4333 25.3365 16.6341 25.2533C16.835 25.1701 17.0174 25.0482 17.1711 24.8945L23.4131 18.6525C23.7235 18.3421 23.8979 17.9211 23.8979 17.4821C23.8979 17.0431 23.7235 16.6221 23.4131 16.3117C23.1027 16.0013 22.6817 15.8269 22.2427 15.8269C21.8038 15.8269 21.3828 16.0013 21.0724 16.3117L18.0005 20L17.6559 1.65517C17.6559 1.21619 17.4815 0.795194 17.1711 0.484789C16.8607 0.174384 16.4397 0 16.0007 0C15.5617 0 15.1407 0.174384 14.8303 0.484789C14.5199 0.795194 14.3455 1.21619 14.3455 1.65517L14.0005 20L10.9291 16.3117C10.6187 16.0013 10.1977 15.8269 9.75868 15.8269C9.3197 15.8269 8.8987 16.0013 8.5883 16.3117C8.2779 16.6221 8.10352 17.0431 8.10352 17.4821C8.10352 17.9211 8.2779 18.3421 8.5883 18.6525L14.8303 24.8945Z" fill="#FF7F00"/>
<path d="M30.3448 14.3438C29.9058 14.3438 29.5956 14.5181 29.2852 14.8285C28.9748 15.1389 29 15.561 29 16L29.1744 29H3V16C3 15.561 2.98347 15.0751 2.73688 14.8285C2.42647 14.5181 2.09415 14.3438 1.65517 14.3438C1.21619 14.3438 0.795194 14.5181 0.484789 14.8285C0.174384 15.1389 0 15.5599 0 15.9989V29.2403C0 29.9719 0.29064 30.6736 0.807981 31.1909C1.32532 31.7083 2.02699 31.9989 2.75862 31.9989H29.2414C29.973 31.9989 30.6747 31.7083 31.192 31.1909C31.7094 30.6736 32 29.9719 32 29.2403V15.9989C32 15.5599 31.8256 15.1389 31.5152 14.8285C31.2048 14.5181 30.7838 14.3438 30.3448 14.3438Z" fill="#FF7F00"/>
</svg>
