<svg width="831" height="800" viewBox="0 0 831 800" fill="none" xmlns="http://www.w3.org/2000/svg">
<g opacity="0.2">
<g clip-path="url(#clip0_2004_65380)">
<g style="mix-blend-mode:screen">
<path d="M328.405 667.615H500.916L516.417 629.217C519.528 621.508 527.01 616.462 535.322 616.462H717.145V290.865C717.145 283.372 711.048 277.275 703.555 277.275H679.522V296.49C679.522 305.901 673.081 314.09 663.931 316.304L618.728 327.247C615.95 335.311 612.853 342.87 609.389 350.031L633.553 389.13C638.559 397.229 637.292 407.715 630.501 414.389L574.111 469.801C567.507 476.29 557.351 477.514 549.397 472.78L509.071 448.783C503.158 451.617 497.156 454.172 491.093 456.441L490.641 540.304C490.416 582.126 456.164 616.149 414.288 616.149C372.187 616.149 337.934 581.94 337.934 539.892V456.145C331.968 453.869 326.016 451.289 320.106 448.42L280.001 472.346C272.04 477.095 261.875 475.875 255.264 469.377L198.925 413.994C192.127 407.31 190.867 396.808 195.892 388.708L220.227 349.484C216.693 342.196 213.543 334.581 210.803 326.689L165.76 315.791C156.611 313.578 150.168 305.389 150.168 295.976V277.273H126.133C118.64 277.273 112.543 283.37 112.543 290.864V616.46H294C302.313 616.46 309.792 621.507 312.904 629.214L328.405 667.615Z" fill="#0A1C4E"/>
<path d="M520.235 407.976L556.736 429.697L590.305 396.709L568.588 361.57C564.668 355.224 564.523 347.244 568.214 340.763C574.261 330.146 579.161 318.258 583.194 304.421C585.237 297.411 590.872 292.029 597.969 290.31L638.742 280.44V234.201L598.134 224.377C591.015 222.654 585.368 217.244 583.339 210.205C579.559 197.084 574.482 184.845 568.251 173.825C564.584 167.341 564.746 159.371 568.672 153.043L590.544 117.787L557.057 84.8677L520.735 106.537C514.522 110.245 506.81 110.381 500.474 106.898C489.37 100.798 477.219 95.9349 463.324 92.0289C456.281 90.0484 450.84 84.4469 449.064 77.3498L439.058 37.3438H391.134L381.154 77.1973C379.372 84.3128 373.904 89.9218 366.838 91.8871C353.528 95.5873 341.008 100.611 329.626 106.818C323.29 110.276 315.597 110.122 309.402 106.418L272.906 84.5948L239.38 117.498L261.082 152.591C265.007 158.937 265.152 166.918 261.459 173.401C255.406 184.031 250.506 195.913 246.48 209.727C244.437 216.738 238.797 222.122 231.698 223.837L190.932 233.692V279.926L231.54 289.751C238.658 291.474 244.307 296.883 246.335 303.921C250.116 317.043 255.193 329.284 261.423 340.304C265.089 346.788 264.926 354.756 261 361.085L239.129 396.34L272.616 429.26L308.939 407.59C315.15 403.886 322.859 403.747 329.198 407.229C332.098 408.822 335.007 410.327 337.925 411.743V344.027C306.252 321.559 287.68 286.853 287.68 249.103C287.68 201.48 317.827 158.515 364.485 139.646C377.326 134.021 392.916 144.534 392.516 158.545V227.806L414.837 246.032L437.159 227.806V158.545C436.759 144.534 452.352 134.018 465.19 139.646C511.849 158.516 541.997 201.48 541.997 249.103C541.997 286.875 523.4 321.602 491.692 344.069L491.326 412.061C494.26 410.656 497.083 408.999 500.05 407.598C509.77 403.007 517.027 406.067 520.235 407.976Z" fill="#0A1C4E"/>
<path d="M351.751 195.598C337.074 209.87 328.461 228.894 328.461 249.113C328.461 276.023 343.44 300.757 368.533 315.279C374.829 318.923 378.706 325.648 378.706 332.923V539.895C378.706 559.461 394.668 575.379 414.286 575.379C433.802 575.379 449.763 559.548 449.868 540.086L450.986 332.814C451.025 325.578 454.898 318.904 461.161 315.28C486.252 300.758 501.233 276.023 501.233 249.115C501.233 228.895 492.618 209.871 477.941 195.599V237.491C477.941 243.613 475.19 249.411 470.449 253.283L427.74 288.154C420.234 294.282 409.456 294.282 401.952 288.154L359.243 253.283C354.5 249.411 351.75 243.614 351.75 237.491L351.751 195.598Z" fill="#0A1C4E"/>
<path d="M58.0781 657.215V736.858C58.0781 744.576 64.384 750.854 72.1351 750.854H757.544C765.295 750.854 771.601 744.576 771.601 736.858V657.215H549.073L533.572 695.611C530.461 703.319 522.979 708.366 514.667 708.366H314.646C306.334 708.366 298.854 703.319 295.742 695.612L280.241 657.215H58.0781Z" fill="#0A1C4E"/>
</g>
</g>
</g>
<defs>
<clipPath id="clip0_2004_65380">
<rect width="713.523" height="713.523" fill="white" transform="translate(58.0781 37.332)"/>
</clipPath>
</defs>
</svg>
