<svg width="644" height="692" viewBox="0 0 644 692" fill="none" xmlns="http://www.w3.org/2000/svg">
<g style="mix-blend-mode:screen" opacity="0.2">
<path d="M321.359 0H320.944V0.138336C318.869 0.138336 316.794 0.691665 314.995 1.66L77.6152 133.077C73.1885 135.567 70.4219 140.27 70.4219 145.25V194.912C71.1135 320.933 143.047 436.857 258.14 497.308L261.322 498.968L283.732 453.595C290.649 439.623 304.897 431.047 320.944 431.047C336.99 431.047 351.239 439.623 358.155 453.318L380.704 499.245L384.439 497.308C499.532 436.857 571.465 320.933 572.157 194.912V145.25C572.157 140.27 569.39 135.567 564.964 133.077L327.584 1.66C325.647 0.691665 323.71 0.138336 321.635 0.138336V0C321.497 0 321.497 0 321.359 0ZM414.595 203.35C419.99 197.955 428.705 197.955 434.239 203.35C439.634 208.745 439.634 217.46 434.239 222.855L288.297 368.797C285.669 371.287 282.21 372.808 278.614 372.808C274.879 372.808 271.42 371.287 268.792 368.797L209.17 309.037C203.775 303.642 203.775 294.927 209.17 289.532C214.565 284.137 223.28 284.137 228.675 289.532L278.614 339.332L414.595 203.35Z" fill="#0A1C4E"/>
<path d="M442.388 546.27C440.728 541.29 436.439 537.693 431.183 536.863L363.538 527.042L333.381 465.76C328.678 456.353 313.184 456.353 308.481 465.76L278.324 527.042L210.679 536.863C205.423 537.693 201.134 541.29 199.474 546.27C197.953 551.25 199.198 556.783 203.071 560.518L251.903 608.105L240.421 675.473C239.591 680.73 241.666 685.987 245.954 689.03C250.243 692.073 255.776 692.488 260.479 690.137L320.931 658.32L381.383 690.137C383.458 691.105 385.671 691.658 387.884 691.658C390.651 691.658 393.556 690.828 395.908 689.03C400.196 685.987 402.409 680.73 401.441 675.473L389.959 608.105L438.791 560.518C442.664 556.783 443.909 551.25 442.388 546.27Z" fill="#0A1C4E"/>
<path d="M38.0438 610.465C42.3321 613.647 47.8655 614.062 52.5688 611.572L98.3571 587.502L144.145 611.572C146.22 612.678 148.434 613.232 150.647 613.232C153.414 613.232 156.319 612.263 158.67 610.465C162.959 607.422 165.172 602.165 164.204 597.047L155.489 546.002L192.562 509.897C196.297 506.162 197.68 500.628 196.02 495.648C194.36 490.668 190.072 487.072 184.816 486.242L133.632 478.772L110.807 432.43C106.104 423.023 90.6105 423.023 85.9072 432.43L63.0822 478.772L11.8988 486.242C6.64215 487.072 2.35382 490.668 0.693818 495.648C-0.966182 500.628 0.417151 506.162 4.15215 509.897L41.2255 546.002L32.5105 597.047C31.5422 602.165 33.7555 607.422 38.0438 610.465Z" fill="#0A1C4E"/>
<path d="M642.567 495.648C640.907 490.668 636.619 487.072 631.362 486.242L580.179 478.772L557.354 432.43C552.651 423.023 537.157 423.023 532.454 432.43L509.629 478.772L458.446 486.242C453.189 487.072 448.901 490.668 447.241 495.648C445.581 500.628 446.964 506.162 450.699 509.897L487.772 546.002L479.057 597.047C478.227 602.165 480.302 607.422 484.591 610.465C488.879 613.647 494.412 614.062 499.116 611.572L544.904 587.502L590.692 611.572C592.767 612.678 594.981 613.232 597.194 613.232C599.961 613.232 602.866 612.263 605.217 610.465C609.506 607.422 611.719 602.165 610.751 597.047L602.036 546.002L639.109 509.897C642.844 506.162 644.227 500.628 642.567 495.648Z" fill="#0A1C4E"/>
</g>
</svg>
