<svg width="34" height="34" viewBox="0 0 34 34" fill="none" xmlns="http://www.w3.org/2000/svg">
<path d="M31.167 23.9707V28.2207C31.1686 28.6153 31.0877 29.0058 30.9297 29.3673C30.7716 29.7288 30.5398 30.0533 30.2491 30.32C29.9583 30.5868 29.6151 30.7898 29.2414 30.9162C28.8676 31.0426 28.4716 31.0896 28.0786 31.0541C23.7193 30.5804 19.5319 29.0908 15.8528 26.7049C12.4299 24.5299 9.5279 21.6278 7.35284 18.2049C4.95865 14.5091 3.4687 10.3013 3.00369 5.92245C2.96828 5.53069 3.01484 5.13586 3.14039 4.76309C3.26595 4.39031 3.46774 4.04776 3.73294 3.75725C3.99813 3.46674 4.32091 3.23463 4.68072 3.07569C5.04053 2.91676 5.4295 2.83449 5.82285 2.83412H10.0728C10.7604 2.82736 11.4269 3.07082 11.9482 3.51912C12.4695 3.96743 12.8099 4.59 12.9062 5.27078C13.0855 6.63087 13.4182 7.96631 13.8978 9.25161C14.0884 9.75867 14.1297 10.3097 14.0167 10.8395C13.9037 11.3693 13.6412 11.8556 13.2603 12.2408L11.4612 14.0399C13.4779 17.5866 16.4145 20.5232 19.9612 22.5399L21.7603 20.7408C22.1455 20.3599 22.6318 20.0974 23.1616 19.9844C23.6913 19.8714 24.2424 19.9126 24.7495 20.1033C26.0348 20.5829 27.3702 20.9155 28.7303 21.0949C29.4185 21.192 30.0469 21.5386 30.4962 22.0689C30.9455 22.5991 31.1842 23.276 31.167 23.9707Z" stroke="#035490" stroke-width="2.83333" stroke-linecap="round" stroke-linejoin="round"/>
</svg>
