<svg width="34" height="34" viewBox="0 0 34 34" fill="none" xmlns="http://www.w3.org/2000/svg">
<path d="M32.5635 9.54657C32.1927 8.15056 31.1003 7.05111 29.7134 6.67799C27.1994 6 17.1185 6 17.1185 6C17.1185 6 7.03777 6 4.52372 6.67799C3.13675 7.05117 2.04438 8.15056 1.67362 9.54657C1 12.0769 1 17.3562 1 17.3562C1 17.3562 1 22.6356 1.67362 25.1659C2.04438 26.5619 3.13675 27.6156 4.52372 27.9887C7.03777 28.6667 17.1185 28.6667 17.1185 28.6667C17.1185 28.6667 27.1993 28.6667 29.7134 27.9887C31.1003 27.6156 32.1927 26.5619 32.5635 25.1659C33.2371 22.6356 33.2371 17.3562 33.2371 17.3562C33.2371 17.3562 33.2371 12.0769 32.5635 9.54657ZM13.8215 22.1495V12.563L22.2471 17.3564L13.8215 22.1495Z" fill="#F4F8FE"/>
</svg>
