<svg width="34" height="34" viewBox="0 0 34 34" fill="none" xmlns="http://www.w3.org/2000/svg">
<path fill-rule="evenodd" clip-rule="evenodd" d="M0 17C0 7.61109 7.61109 0 17 0C26.3889 0 34 7.61109 34 17C34 26.3889 26.3889 34 17 34C7.61109 34 0 26.3889 0 17ZM22.236 25.0881L25.2725 9.77895C25.2725 8.75975 23.871 9.37574 23.871 9.37574L6.82103 16.0642C6.82103 16.0642 6.01406 16.3402 6.07781 16.8498C6.14156 17.3594 6.79978 17.5928 6.79978 17.5928L11.0888 19.0368L13.6367 20.2682L20.6436 25.6402C21.8114 26.1498 22.236 25.0881 22.236 25.0881Z" fill="#F4F8FE"/>
<path d="M13.0993 24.9155C13.0993 24.9155 12.8948 24.8964 12.6398 24.0894C12.3852 23.2826 11.0898 19.0361 11.0898 19.0361L21.3879 12.4964C21.3879 12.4964 21.9825 12.1354 21.9612 12.4964C21.9612 12.4964 22.0673 12.5601 21.7487 12.8574C21.4304 13.1547 13.6591 20.1403 13.6591 20.1403" fill="#0D2E57"/>
<path d="M16.3227 22.328L13.5513 24.8549C13.5513 24.8549 13.3346 25.0193 13.0977 24.9163L13.6284 20.2227" fill="#0D2E57"/>
</svg>
