<svg width="34" height="34" viewBox="0 0 34 34" fill="none" xmlns="http://www.w3.org/2000/svg">
<path d="M32.64 0H1.36C0.60775 0 0 0.60775 0 1.36V32.64C0 33.3923 0.60775 34 1.36 34H32.64C33.3923 34 34 33.3923 34 32.64V1.36C34 0.60775 33.3923 0 32.64 0ZM10.0852 28.9722H5.0405V12.7457H10.0852V28.9722ZM7.565 10.5273C6.98669 10.5273 6.42136 10.3558 5.94051 10.0345C5.45966 9.71317 5.08489 9.25651 4.86358 8.72222C4.64227 8.18792 4.58436 7.60001 4.69718 7.03281C4.81001 6.46561 5.08849 5.9446 5.49742 5.53567C5.90635 5.12674 6.42736 4.84826 6.99456 4.73543C7.56176 4.62261 8.14968 4.68052 8.68397 4.90183C9.21826 5.12314 9.67492 5.49791 9.99622 5.97876C10.3175 6.45961 10.489 7.02494 10.489 7.60325C10.4847 9.21825 9.17575 10.5273 7.565 10.5273ZM28.9722 28.9722H23.9317V21.08C23.9317 19.1973 23.8978 16.779 21.3095 16.779C18.6873 16.779 18.2835 18.8275 18.2835 20.944V28.9722H13.2473V12.7457H18.0837V14.9643H18.1517C18.8232 13.6892 20.468 12.342 22.9245 12.342C28.033 12.342 28.9722 15.7037 28.9722 20.0728V28.9722Z" fill="#F4F8FE"/>
</svg>
