<svg width="34" height="35" viewBox="0 0 34 35" fill="none" xmlns="http://www.w3.org/2000/svg">
<path d="M29.0452 5.62482C27.4788 4.0505 25.6131 2.80226 23.5568 1.95292C21.5005 1.10357 19.2948 0.670118 17.0683 0.677836C7.7397 0.677836 0.136684 8.24281 0.136684 17.5248C0.136684 20.4998 0.922613 23.3898 2.39196 25.9398L0 34.6777L8.96985 32.3317C11.4472 33.6747 14.2322 34.3887 17.0683 34.3887C26.397 34.3887 34 26.8238 34 17.5418C34 13.0368 32.2402 8.80381 29.0452 5.62482ZM17.0683 31.5327C14.5397 31.5327 12.0623 30.8527 9.89246 29.5777L9.3799 29.2718L4.04925 30.6657L5.46734 25.4978L5.12563 24.9708C3.72077 22.7386 2.97481 20.1585 2.97286 17.5248C2.97286 9.80681 9.29447 3.51683 17.0513 3.51683C20.81 3.51683 24.3467 4.97882 26.995 7.63082C28.3063 8.92955 29.3454 10.4743 30.0522 12.1756C30.759 13.8769 31.1194 15.7009 31.1126 17.5418C31.1467 25.2598 24.8251 31.5327 17.0683 31.5327ZM24.791 21.0608C24.3638 20.8568 22.2794 19.8368 21.9035 19.6838C21.5105 19.5478 21.2372 19.4798 20.9467 19.8878C20.6563 20.3128 19.8533 21.2648 19.6141 21.5368C19.3749 21.8258 19.1186 21.8598 18.6915 21.6388C18.2643 21.4348 16.8975 20.9758 15.2915 19.5478C14.0271 18.4258 13.1899 17.0488 12.9337 16.6238C12.6945 16.1988 12.8995 15.9778 13.1216 15.7568C13.3095 15.5698 13.5487 15.2638 13.7538 15.0258C13.9588 14.7878 14.0442 14.6008 14.1809 14.3288C14.3176 14.0398 14.2492 13.8018 14.1467 13.5978C14.0442 13.3938 13.1899 11.3198 12.8482 10.4698C12.5065 9.65381 12.1477 9.75581 11.8915 9.73881H11.0714C10.7809 9.73881 10.3367 9.84081 9.94372 10.2658C9.56784 10.6908 8.47437 11.7108 8.47437 13.7848C8.47437 15.8588 9.99497 17.8648 10.2 18.1368C10.405 18.4258 13.1899 22.6758 17.4271 24.4948C18.4352 24.9368 19.2211 25.1918 19.8362 25.3788C20.8442 25.7018 21.7668 25.6508 22.5015 25.5488C23.3216 25.4298 25.0131 24.5288 25.3548 23.5428C25.7136 22.5568 25.7136 21.7238 25.594 21.5368C25.4744 21.3498 25.2181 21.2648 24.791 21.0608Z" fill="#F4F8FE"/>
</svg>
