<svg width="34" height="35" viewBox="0 0 34 35" fill="none" xmlns="http://www.w3.org/2000/svg">
<path fill-rule="evenodd" clip-rule="evenodd" d="M17 34.6777C26.3888 34.6777 34 27.0666 34 17.6777C34 8.28889 26.3888 0.677734 17 0.677734C7.61116 0.677734 0 8.28889 0 17.6777C0 27.0666 7.61116 34.6777 17 34.6777ZM18.45 9.67773C15.3854 9.67773 12.7473 11.5036 11.564 14.1268C11.3047 13.9176 11.0726 13.6737 10.8751 13.4002C10.4024 12.7457 10.1526 11.9567 10.1625 11.1495L6.00059 11.0985C5.9798 12.7981 6.50575 14.4593 7.50087 15.8371C8.36516 17.0338 9.54361 17.9618 10.8998 18.5222V25.533H14.6752V17.9831C14.6752 15.8981 16.3654 14.208 18.4503 14.208C20.5352 14.208 22.2254 15.8981 22.2254 17.9831V25.533H26.0001V17.2279C26.0001 13.0581 22.6198 9.67773 18.45 9.67773Z" fill="#F4F8FE"/>
</svg>
