<svg width="36" height="20" viewBox="0 0 36 20" fill="none" xmlns="http://www.w3.org/2000/svg">
<path d="M0.225002 9.27374L9.225 0.335196C9.675 -0.111732 10.35 -0.111732 10.8 0.335196C11.25 0.782123 11.25 1.45251 10.8 1.89944L3.825 8.82682H34.875C35.55 9.05028 36 9.49721 36 10.1676C36 10.838 35.55 11.2849 34.875 11.2849H3.825L10.8 18.2123C11.25 18.6592 11.25 19.3296 10.8 19.7765C10.575 20 10.35 20 9.9 20C9.45 20 9.225 20 9 19.7765L0 10.838C0 10.6145 0 9.72067 0.225002 9.27374Z" fill="url(#paint0_linear_2501_2195)"/>
<path d="M0.225002 9.27374L9.225 0.335196C9.675 -0.111732 10.35 -0.111732 10.8 0.335196C11.25 0.782123 11.25 1.45251 10.8 1.89944L3.825 8.82682H34.875C35.55 9.05028 36 9.49721 36 10.1676C36 10.838 35.55 11.2849 34.875 11.2849H3.825L10.8 18.2123C11.25 18.6592 11.25 19.3296 10.8 19.7765C10.575 20 10.35 20 9.9 20C9.45 20 9.225 20 9 19.7765L0 10.838C0 10.6145 0 9.72067 0.225002 9.27374Z" fill="#E5F7F9" fill-opacity="0.1"/>
<defs>
<linearGradient id="paint0_linear_2501_2195" x1="40.6274" y1="-0.921054" x2="-2.09452" y2="1.47002" gradientUnits="userSpaceOnUse">
<stop stop-color="#FF7F00"/>
<stop offset="1" stop-color="#92F7F3"/>
</linearGradient>
</defs>
</svg>
