<svg width="36" height="20" viewBox="0 0 36 20" fill="none" xmlns="http://www.w3.org/2000/svg">
<path d="M35.775 9.27374L26.775 0.335196C26.325 -0.111732 25.65 -0.111732 25.2 0.335196C24.75 0.782123 24.75 1.45251 25.2 1.89944L32.175 8.82682H1.125C0.45 9.05028 0 9.49721 0 10.1676C0 10.838 0.45 11.2849 1.125 11.2849H32.175L25.2 18.2123C24.75 18.6592 24.75 19.3296 25.2 19.7765C25.425 20 25.65 20 26.1 20C26.55 20 26.775 20 27 19.7765L36 10.838C36 10.6145 36 9.72067 35.775 9.27374Z" fill="url(#paint0_linear_2501_2146)"/>
<path d="M35.775 9.27374L26.775 0.335196C26.325 -0.111732 25.65 -0.111732 25.2 0.335196C24.75 0.782123 24.75 1.45251 25.2 1.89944L32.175 8.82682H1.125C0.45 9.05028 0 9.49721 0 10.1676C0 10.838 0.45 11.2849 1.125 11.2849H32.175L25.2 18.2123C24.75 18.6592 24.75 19.3296 25.2 19.7765C25.425 20 25.65 20 26.1 20C26.55 20 26.775 20 27 19.7765L36 10.838C36 10.6145 36 9.72067 35.775 9.27374Z" fill="#E5F7F9" fill-opacity="0.1"/>
<defs>
<linearGradient id="paint0_linear_2501_2146" x1="-4.62736" y1="-0.921054" x2="38.0945" y2="1.47002" gradientUnits="userSpaceOnUse">
<stop stop-color="#FF7F00"/>
<stop offset="1" stop-color="#92F7F3"/>
</linearGradient>
</defs>
</svg>
