<svg width="208" height="54" viewBox="0 0 208 54" fill="none" xmlns="http://www.w3.org/2000/svg">
<g clip-path="url(#clip0_2172_3054)">
<path fill-rule="evenodd" clip-rule="evenodd" d="M100.19 15.719C100.929 15.719 101.52 15.143 101.52 14.423C101.52 13.703 100.929 13.127 100.19 13.127C99.4506 13.127 98.8594 13.703 98.8594 14.423C98.8594 15.143 99.4752 15.719 100.19 15.719Z" fill="url(#paint0_linear_2172_3054)"/>
<path fill-rule="evenodd" clip-rule="evenodd" d="M100.19 15.719C100.929 15.719 101.52 15.143 101.52 14.423C101.52 13.703 100.929 13.127 100.19 13.127C99.4506 13.127 98.8594 13.703 98.8594 14.423C98.8594 15.143 99.4752 15.719 100.19 15.719Z" fill="#E5F7F9" fill-opacity="0.1"/>
<path fill-rule="evenodd" clip-rule="evenodd" d="M92.506 15.719C93.245 15.719 93.8362 15.143 93.8362 14.423C93.8362 13.703 93.245 13.127 92.506 13.127C91.767 13.127 91.1758 13.703 91.1758 14.423C91.2004 15.143 91.7916 15.719 92.506 15.719Z" fill="url(#paint1_linear_2172_3054)"/>
<path fill-rule="evenodd" clip-rule="evenodd" d="M92.506 15.719C93.245 15.719 93.8362 15.143 93.8362 14.423C93.8362 13.703 93.245 13.127 92.506 13.127C91.767 13.127 91.1758 13.703 91.1758 14.423C91.2004 15.143 91.7916 15.719 92.506 15.719Z" fill="#E5F7F9" fill-opacity="0.1"/>
<path d="M57.2065 3.90923C42.1308 4.31723 15.2555 9.62123 2.86475 3.81323C7.37271 9.30923 16.1423 9.06923 21.8819 7.84523C18.1376 10.7732 12.0777 11.6852 6.16566 11.5652C11.0431 15.2132 17.6942 13.3412 21.8819 10.6052C20.798 13.0052 17.5218 15.9572 14.5411 16.5572C20.0837 17.4932 23.2368 15.5252 25.8479 11.2292C25.3799 13.9652 24.1236 16.8692 21.4878 18.0932C24.6162 18.3332 27.6955 16.7252 29.0503 13.3172C28.8286 14.4452 28.3113 15.9572 27.7447 16.5332C29.6415 16.3652 30.9471 15.5972 31.8585 14.6372C33.3366 15.2132 35.0609 11.3012 35.5536 10.0772L35.3811 11.0612C34.9624 13.5812 34.0263 15.6452 32.5729 17.2292C31.9324 17.9252 29.7893 19.8932 26.784 20.5652C29.1242 19.8212 30.8978 18.5732 32.3266 17.0132C33.5583 15.6452 34.4204 14.0132 34.987 11.9972C34.5929 12.8132 33.0902 15.6932 31.8585 15.1172C30.6269 16.4132 28.7054 17.1092 26.9072 17.0852C27.6216 16.4372 28.0896 15.7412 28.4098 14.9252C26.9072 17.5172 23.9265 19.6772 18.6549 18.6932C21.4139 17.6132 23.9265 16.3412 24.9365 13.4852C21.7341 18.3332 15.3047 18.4052 11.5851 16.5572C15.0338 15.3812 18.3347 14.6852 20.4039 11.8532C15.6003 15.8132 7.52051 15.4532 3.82546 10.7732C8.99853 10.7732 16.4379 10.8932 20.9458 8.18123C12.6443 11.4212 2.37208 8.30123 0.179688 2.30123C20.1083 9.57323 37.8691 1.67723 57.6499 1.48523C64.2764 -0.962768 79.4014 -0.146769 85.8555 2.20523C89.2795 2.01323 92.0139 0.453231 96.3494 0.597232V1.41323C92.5312 1.36523 89.9693 2.18123 86.8408 2.44523C87.7769 2.70923 88.5159 2.99723 89.0332 3.30923C81.2243 1.14923 71.0014 0.549231 61.813 2.37323C72.4301 2.97323 80.6578 7.82123 86.5698 7.36523C83.2689 8.66123 64.4488 3.38123 57.2065 3.90923ZM96.9406 5.51723C103.666 3.30923 109.356 8.18123 108.888 15.9332C108.494 22.7492 100.759 27.8612 98.862 25.9172C98.0245 25.0532 98.9852 22.8212 97.0638 21.2852C98.7881 21.9092 98.6157 23.9012 99.6995 24.1412C102.261 24.7172 106.696 20.0612 107.114 16.2692C108.05 7.96523 102.385 4.22123 96.9406 5.51723ZM95.7582 5.51723C89.0332 3.30923 83.3428 8.18123 83.8109 15.9332C84.205 22.7492 91.94 27.8612 93.8368 25.9172C94.6743 25.0532 93.7136 22.8212 95.635 21.2852C93.9107 21.9092 94.0831 23.9012 92.9992 24.1412C90.4373 24.7172 86.0033 20.0612 85.5845 16.2692C84.6484 7.96523 90.3141 4.22123 95.7582 5.51723ZM135.517 3.90923C150.568 4.31723 177.443 9.62123 189.859 3.81323C185.351 9.30923 176.581 9.06923 170.841 7.84523C174.586 10.7732 180.646 11.6852 186.558 11.5652C181.68 15.2132 175.029 13.3412 170.841 10.6052C171.925 13.0292 175.202 15.9572 178.182 16.5812C172.64 17.5172 169.487 15.5492 166.875 11.2532C167.344 13.9892 168.6 16.8932 171.236 18.1172C168.107 18.3572 165.028 16.7492 163.673 13.3412C163.895 14.4692 164.412 15.9812 164.979 16.5572C163.082 16.3892 161.776 15.6212 160.865 14.6612C159.387 15.2372 157.662 11.3252 157.17 10.1012L157.342 11.0852C157.761 13.6052 158.697 15.6692 160.15 17.2532C160.791 17.9492 162.934 19.9172 165.939 20.5892C163.599 19.8452 161.826 18.5972 160.397 17.0372C159.165 15.6692 158.303 14.0372 157.736 12.0212C158.131 12.8372 159.633 15.7172 160.865 15.1412C162.097 16.4372 164.018 17.1332 165.816 17.1092C165.102 16.4612 164.634 15.7652 164.314 14.9492C165.816 17.5172 168.797 19.6772 174.044 18.6932C171.285 17.6132 168.772 16.3412 167.762 13.4852C170.989 18.3332 177.394 18.4052 181.114 16.5572C177.665 15.3812 174.364 14.6852 172.295 11.8532C177.098 15.8132 185.178 15.4532 188.873 10.7732C183.7 10.7732 176.261 10.8932 171.753 8.18123C180.054 11.3972 190.327 8.27723 192.494 2.27723C172.59 9.57323 154.83 1.67723 135.049 1.48523C128.447 -0.962768 113.297 -0.146769 106.868 2.20523C103.444 2.01323 100.71 0.453231 96.374 0.597232V1.41323C100.192 1.36523 102.754 2.18123 105.883 2.44523C104.947 2.70923 104.208 2.99723 103.69 3.30923C111.499 1.14923 121.722 0.549231 130.91 2.37323C120.293 2.97323 112.066 7.82123 106.154 7.36523C109.43 8.66123 128.275 3.38123 135.517 3.90923Z" fill="url(#paint2_linear_2172_3054)"/>
<path fill-rule="evenodd" clip-rule="evenodd" d="M90.1152 12.3368C93.3915 9.09677 97.7517 14.4968 91.8642 18.6008C92.4308 17.7128 92.6771 16.8248 92.7018 16.0088C92.6279 16.0088 92.5786 16.0088 92.5047 16.0088C91.5686 16.0088 90.8296 15.2648 90.8296 14.3768C90.8296 13.7768 91.1498 13.2728 91.6425 12.9848C91.1745 12.5048 90.6325 12.2408 90.1152 12.3368ZM102.58 12.3368C99.2789 9.09677 94.9434 14.4968 100.831 18.6008C100.264 17.7128 100.018 16.8248 99.9933 16.0088C100.067 16.0088 100.116 16.0088 100.19 16.0088C101.126 16.0088 101.865 15.2648 101.865 14.3768C101.865 13.7768 101.545 13.2728 101.053 12.9848C101.545 12.5048 102.087 12.2408 102.58 12.3368ZM100.19 13.8968C100.461 13.8968 100.683 14.1128 100.683 14.3768C100.683 14.6408 100.461 14.8568 100.19 14.8568C99.9194 14.8568 99.6977 14.6408 99.6977 14.3768C99.6977 14.1128 99.9194 13.8968 100.19 13.8968ZM100.19 13.3208C100.782 13.3208 101.274 13.8008 101.274 14.3768C101.274 14.9528 100.782 15.4328 100.19 15.4328C99.5992 15.4328 99.1065 14.9528 99.1065 14.3768C99.1065 13.8008 99.5745 13.3208 100.19 13.3208ZM96.3475 6.38477C96.1751 8.06477 96.0766 10.5848 95.3376 11.0408C94.9188 11.2808 94.032 10.3448 92.7264 10.7048C97.6778 11.1368 97.4068 18.6968 91.3962 20.9528C92.5047 20.6648 93.7364 20.1128 94.8203 19.2008C95.042 19.8728 95.7563 21.2408 96.3475 21.2408C96.3475 21.1928 96.3475 21.0248 96.3475 20.9768V17.3048C96.3475 13.5848 96.3475 10.0808 96.3475 6.38477ZM96.3475 6.38477C96.3475 10.0808 96.3475 13.5848 96.3475 17.3048V20.9768C96.3475 21.0248 96.3475 21.1928 96.3475 21.2408C96.9387 21.2408 97.6531 19.8728 97.8748 19.2008C98.9587 20.1128 100.166 20.6648 101.299 20.9528C95.3129 18.6968 95.0173 11.1368 99.9687 10.7048C98.6631 10.3448 97.7763 11.2808 97.3575 11.0408C96.6185 10.5848 96.52 8.06477 96.3475 6.38477ZM92.5047 13.8968C92.2337 13.8968 92.012 14.1128 92.012 14.3768C92.012 14.6408 92.2337 14.8568 92.5047 14.8568C92.7757 14.8568 92.9974 14.6408 92.9974 14.3768C93.022 14.1128 92.8003 13.8968 92.5047 13.8968ZM92.5047 13.3208C91.9135 13.3208 91.4208 13.8008 91.4208 14.3768C91.4208 14.9528 91.9135 15.4328 92.5047 15.4328C93.0959 15.4328 93.5886 14.9528 93.5886 14.3768C93.5886 13.8008 93.1205 13.3208 92.5047 13.3208Z" fill="#2375B1"/>
<path d="M128.344 13.1728C119.919 12.7888 110.953 19.1488 108.711 27.3568C111.987 18.5008 121.126 14.7088 128.344 13.1728ZM79.8156 19.4848C84.6684 24.7888 89.7183 26.8048 96.3448 26.7568V28.3408C88.7823 28.2448 83.5353 25.0528 79.8156 19.4848ZM112.874 19.4848C109.154 25.0768 103.907 28.2448 96.3448 28.3408V26.7568C102.971 26.7808 108.021 24.7648 112.874 19.4848ZM64.3457 13.1728C71.5634 14.7088 80.7024 18.5008 83.9787 27.3568C81.7371 19.1488 72.7704 12.7888 64.3457 13.1728Z" fill="#17669F"/>
<path d="M1.94336 29.1435V48.8715H4.62843V29.1435H1.94336ZM13.7675 31.3515V48.8715H16.4526V31.3515H23.2022V29.1435H7.01789V31.3515H13.7675ZM25.4438 29.1435V48.8715H28.1289V39.8475H37.4404V37.6395H28.1289V31.3755H38.746V29.1675H25.4438V29.1435ZM46.3085 31.3515V48.8715H48.9936V31.3515H55.7432V29.1435H39.5589V31.3515H46.3085ZM80.1305 35.0955H82.8156C82.6678 34.0395 82.3475 33.1275 81.8549 32.3115C81.3622 31.5195 80.7463 30.8475 80.0073 30.3195C79.2683 29.7915 78.4308 29.3835 77.4947 29.0955C76.5586 28.8075 75.5487 28.6875 74.4894 28.6875C72.9375 28.6875 71.558 28.9515 70.3756 29.5035C69.1685 30.0555 68.1832 30.7995 67.3703 31.7355C66.5574 32.6715 65.9662 33.7755 65.5474 35.0475C65.1286 36.3195 64.9316 37.6635 64.9316 39.1035C64.9316 40.5435 65.1286 41.8875 65.5228 43.1355C65.9169 44.3835 66.4835 45.4635 67.2718 46.3995C68.0354 47.3115 69.0207 48.0315 70.2032 48.5595C71.3856 49.0875 72.7404 49.3515 74.317 49.3515C76.9035 49.3515 78.9481 48.6555 80.4508 47.2875C81.9534 45.8955 82.8156 43.9755 83.0865 41.4795H80.4015C80.3522 42.2955 80.1798 43.0395 79.8842 43.7355C79.5886 44.4315 79.2191 45.0315 78.7018 45.5355C78.1845 46.0395 77.5932 46.4475 76.9035 46.7115C76.2138 46.9995 75.4255 47.1435 74.5387 47.1435C73.3316 47.1435 72.297 46.9275 71.4102 46.4715C70.548 46.0395 69.8336 45.4395 69.2671 44.6955C68.7005 43.9515 68.3064 43.0635 68.0354 42.0795C67.7644 41.0715 67.6413 40.0155 67.6413 38.8875C67.6413 37.8555 67.7644 36.8715 68.0354 35.9115C68.3064 34.9515 68.7005 34.1115 69.2671 33.3675C69.8336 32.6235 70.5234 32.0235 71.3856 31.5915C72.2477 31.1595 73.2824 30.9195 74.4894 30.9195C75.9182 30.9195 77.1252 31.2795 78.1598 31.9755C79.1452 32.6475 79.8103 33.6795 80.1305 35.0955ZM87.7177 41.7435C87.7177 40.8795 87.8408 40.1115 88.0625 39.4395C88.3089 38.7675 88.6291 38.1915 89.0479 37.7355C89.4667 37.2795 89.9593 36.9195 90.5013 36.6795C91.0678 36.4395 91.659 36.3195 92.2749 36.3195C92.8907 36.3195 93.4819 36.4395 94.0485 36.6795C94.6151 36.9195 95.0831 37.2795 95.5019 37.7355C95.9207 38.1915 96.2409 38.7675 96.4872 39.4395C96.7336 40.1115 96.8321 40.8795 96.8321 41.7435C96.8321 42.6075 96.7089 43.3755 96.4872 44.0475C96.2409 44.7195 95.9207 45.2715 95.5019 45.7275C95.0831 46.1835 94.5904 46.5195 94.0485 46.7595C93.4819 46.9995 92.8907 47.1195 92.2749 47.1195C91.659 47.1195 91.0678 46.9995 90.5013 46.7595C89.9347 46.5195 89.4667 46.1835 89.0479 45.7275C88.6291 45.2715 88.3089 44.7195 88.0625 44.0475C87.8408 43.3755 87.7177 42.6075 87.7177 41.7435ZM85.1804 41.7435C85.1804 42.7995 85.3282 43.7595 85.6238 44.6715C85.9194 45.5835 86.3875 46.3515 86.9787 47.0235C87.5945 47.6955 88.3335 48.2235 89.2203 48.6075C90.1071 48.9915 91.1417 49.1835 92.2749 49.1835C93.4573 49.1835 94.4673 48.9915 95.3541 48.6075C96.2409 48.2235 96.9799 47.6955 97.5711 47.0235C98.187 46.3515 98.6304 45.5595 98.926 44.6715C99.2216 43.7595 99.3694 42.7995 99.3694 41.7435C99.3694 40.6875 99.2216 39.7035 98.926 38.7915C98.6304 37.8795 98.1623 37.0875 97.5711 36.4155C96.9553 35.7435 96.2163 35.2155 95.3541 34.8315C94.4673 34.4475 93.4573 34.2555 92.2749 34.2555C91.1171 34.2555 90.1071 34.4475 89.2203 34.8315C88.3335 35.2155 87.5945 35.7435 86.9787 36.4155C86.3628 37.0875 85.9194 37.8795 85.6238 38.7915C85.3282 39.7035 85.1804 40.6875 85.1804 41.7435ZM102.252 34.5915V48.8715H104.666V39.9675C104.666 39.6795 104.74 39.3435 104.887 38.9355C105.035 38.5275 105.257 38.1195 105.577 37.7355C105.897 37.3515 106.291 37.0155 106.784 36.7515C107.277 36.4635 107.893 36.3435 108.582 36.3435C109.124 36.3435 109.568 36.4155 109.937 36.5835C110.282 36.7515 110.578 36.9675 110.775 37.2555C110.972 37.5435 111.12 37.8795 111.218 38.2635C111.292 38.6475 111.341 39.0795 111.341 39.5355V48.8955H113.755V39.9915C113.755 38.8875 114.1 37.9995 114.765 37.3275C115.455 36.6555 116.391 36.3435 117.574 36.3435C118.165 36.3435 118.633 36.4155 119.002 36.5835C119.372 36.7515 119.667 36.9675 119.865 37.2555C120.062 37.5435 120.209 37.8795 120.283 38.2635C120.357 38.6475 120.406 39.0555 120.406 39.5115V48.8715H122.821V38.4075C122.821 37.6635 122.697 37.0395 122.476 36.5115C122.229 35.9835 121.909 35.5515 121.49 35.2155C121.072 34.8795 120.554 34.6395 119.963 34.4715C119.372 34.3035 118.707 34.2315 117.968 34.2315C117.007 34.2315 116.12 34.4475 115.307 34.8555C114.494 35.2875 113.854 35.8875 113.361 36.6555C113.066 35.7675 112.548 35.1435 111.809 34.7835C111.07 34.4235 110.257 34.2315 109.346 34.2315C107.277 34.2315 105.7 35.0475 104.616 36.6555H104.567V34.5675H102.252V34.5915ZM126.516 34.5915V54.3195H128.93V46.9755H128.979C129.25 47.4075 129.57 47.7435 129.964 48.0315C130.358 48.3195 130.753 48.5355 131.196 48.7035C131.639 48.8715 132.058 48.9915 132.526 49.0635C132.97 49.1355 133.364 49.1835 133.733 49.1835C134.842 49.1835 135.827 48.9915 136.665 48.6075C137.502 48.2235 138.217 47.6955 138.759 47.0235C139.325 46.3515 139.744 45.5595 140.015 44.6715C140.286 43.7595 140.434 42.7995 140.434 41.7915C140.434 40.7835 140.286 39.8235 140.015 38.9115C139.719 37.9995 139.301 37.2075 138.759 36.5115C138.192 35.8155 137.502 35.2635 136.665 34.8795C135.827 34.4715 134.842 34.2795 133.709 34.2795C132.699 34.2795 131.763 34.4475 130.9 34.8075C130.038 35.1675 129.422 35.7435 129.028 36.5355H128.979V34.5915H126.516ZM137.847 41.5995C137.847 42.2955 137.773 42.9915 137.625 43.6395C137.478 44.3115 137.231 44.8875 136.886 45.4155C136.542 45.9195 136.098 46.3515 135.532 46.6635C134.965 46.9755 134.275 47.1435 133.438 47.1435C132.6 47.1435 131.886 46.9995 131.319 46.6875C130.728 46.3755 130.26 45.9915 129.89 45.4875C129.521 44.9835 129.25 44.4075 129.078 43.7595C128.905 43.1115 128.831 42.4395 128.831 41.7195C128.831 41.0475 128.905 40.3995 129.078 39.7515C129.25 39.1035 129.496 38.5275 129.866 38.0235C130.235 37.5195 130.679 37.1115 131.245 36.7995C131.812 36.4875 132.502 36.3195 133.315 36.3195C134.078 36.3195 134.768 36.4635 135.334 36.7515C135.901 37.0395 136.394 37.4475 136.763 37.9275C137.133 38.4315 137.404 38.9835 137.576 39.6315C137.773 40.3035 137.847 40.9515 137.847 41.5995ZM155.386 48.8715V34.5915H152.972V42.6555C152.972 43.3035 152.874 43.9035 152.701 44.4315C152.529 44.9835 152.258 45.4395 151.888 45.8475C151.519 46.2555 151.075 46.5675 150.533 46.7835C149.992 46.9995 149.351 47.1195 148.612 47.1195C147.676 47.1195 146.962 46.8555 146.42 46.3515C145.902 45.8475 145.631 45.1275 145.631 44.2635V34.5915H143.217V43.9755C143.217 44.7435 143.291 45.4635 143.464 46.0875C143.636 46.7115 143.907 47.2635 144.301 47.7195C144.695 48.1755 145.213 48.5355 145.853 48.7755C146.494 49.0155 147.306 49.1595 148.267 49.1595C149.351 49.1595 150.287 48.9435 151.075 48.5355C151.864 48.1275 152.529 47.4795 153.021 46.5915H153.071V48.8475H155.386V48.8715ZM162.358 34.5915V30.3195H159.943V34.5915H157.455V36.6555H159.943V45.7515C159.943 46.4235 160.017 46.9515 160.141 47.3595C160.264 47.7675 160.485 48.0795 160.756 48.2955C161.027 48.5115 161.397 48.6795 161.84 48.7515C162.284 48.8235 162.826 48.8715 163.441 48.8715H165.289V46.8075H164.18C163.811 46.8075 163.491 46.7835 163.269 46.7595C163.023 46.7355 162.85 46.6635 162.727 46.5915C162.604 46.4955 162.505 46.3755 162.456 46.2075C162.407 46.0395 162.382 45.8235 162.382 45.5355V36.6555H165.264V34.5915H162.358ZM178.123 40.3515H169.698C169.748 39.7995 169.871 39.2715 170.068 38.7915C170.265 38.3115 170.561 37.8795 170.93 37.4955C171.3 37.1355 171.718 36.8475 172.211 36.6315C172.704 36.4155 173.27 36.3195 173.886 36.3195C174.502 36.3195 175.044 36.4155 175.537 36.6315C176.029 36.8475 176.473 37.1355 176.842 37.4955C177.212 37.8555 177.507 38.2875 177.729 38.7915C177.951 39.2955 178.074 39.7995 178.123 40.3515ZM180.439 44.3355H178.074C177.877 45.2715 177.433 45.9675 176.793 46.4235C176.152 46.8795 175.315 47.1195 174.28 47.1195C173.492 47.1195 172.802 46.9995 172.211 46.7355C171.62 46.4715 171.152 46.1355 170.758 45.7035C170.388 45.2715 170.117 44.7675 169.945 44.2155C169.772 43.6635 169.698 43.0635 169.723 42.4395H180.685C180.734 41.5755 180.636 40.6635 180.439 39.7035C180.242 38.7435 179.872 37.8555 179.355 37.0395C178.837 36.2235 178.148 35.5515 177.286 35.0475C176.423 34.5195 175.339 34.2555 174.034 34.2555C173.024 34.2555 172.113 34.4475 171.275 34.8075C170.437 35.1675 169.698 35.6955 169.083 36.3435C168.467 37.0155 167.999 37.7835 167.654 38.6955C167.309 39.6075 167.136 40.5915 167.136 41.6715C167.186 42.7515 167.334 43.7595 167.629 44.6715C167.925 45.5835 168.368 46.3755 168.959 47.0475C169.551 47.7195 170.265 48.2235 171.127 48.5835C171.989 48.9435 172.999 49.1355 174.182 49.1355C175.857 49.1355 177.236 48.7275 178.32 47.9115C179.404 47.1435 180.118 45.9435 180.439 44.3355ZM183.074 34.5915V48.8715H185.489V42.5115C185.489 41.5995 185.587 40.7835 185.784 40.0635C185.981 39.3435 186.277 38.7435 186.696 38.2635C187.114 37.7595 187.656 37.3995 188.346 37.1355C189.036 36.8715 189.849 36.7515 190.809 36.7515V34.2555C189.504 34.2075 188.42 34.4715 187.582 35.0235C186.72 35.5755 186.006 36.4395 185.439 37.5915H185.39V34.5915H183.074ZM194.086 44.3595H191.672C191.721 45.2475 191.893 45.9915 192.238 46.6155C192.583 47.2395 193.026 47.7195 193.593 48.1035C194.16 48.4875 194.8 48.7515 195.539 48.9195C196.278 49.0875 197.042 49.1595 197.855 49.1595C198.594 49.1595 199.333 49.0875 200.072 48.9435C200.811 48.7995 201.5 48.5595 202.092 48.1995C202.683 47.8395 203.176 47.3835 203.545 46.8075C203.915 46.2315 204.087 45.5115 204.087 44.6475C204.087 43.9755 203.939 43.3995 203.668 42.9435C203.397 42.4875 203.028 42.1035 202.584 41.7915C202.141 41.4795 201.624 41.2395 201.057 41.0475C200.49 40.8555 199.899 40.7115 199.283 40.5675C198.717 40.4475 198.15 40.3035 197.584 40.1835C197.017 40.0635 196.5 39.9195 196.056 39.7515C195.613 39.5835 195.219 39.3675 194.948 39.0795C194.652 38.8155 194.504 38.4795 194.504 38.0715C194.504 37.7115 194.603 37.3995 194.8 37.1835C194.997 36.9435 195.243 36.7755 195.539 36.6315C195.835 36.4875 196.18 36.3915 196.549 36.3435C196.919 36.2955 197.288 36.2715 197.633 36.2715C198.027 36.2715 198.421 36.3195 198.815 36.3915C199.209 36.4635 199.554 36.6075 199.875 36.7995C200.195 36.9915 200.466 37.2315 200.663 37.5435C200.86 37.8555 200.983 38.2395 201.032 38.6955H203.446C203.397 37.8315 203.2 37.1115 202.88 36.5355C202.56 35.9595 202.116 35.5035 201.599 35.1435C201.057 34.8075 200.441 34.5675 199.751 34.4235C199.062 34.2795 198.298 34.2075 197.461 34.2075C196.82 34.2075 196.18 34.2795 195.514 34.4475C194.874 34.6155 194.283 34.8315 193.765 35.1675C193.248 35.4795 192.829 35.9115 192.485 36.4155C192.164 36.9195 191.992 37.5435 191.992 38.2635C191.992 39.1755 192.238 39.8955 192.706 40.4235C193.174 40.9275 193.765 41.3355 194.48 41.6235C195.194 41.9115 195.958 42.1275 196.795 42.2955C197.633 42.4635 198.397 42.6315 199.111 42.8235C199.825 43.0155 200.417 43.2795 200.885 43.5915C201.353 43.9035 201.599 44.3595 201.599 44.9835C201.599 45.4155 201.476 45.7995 201.254 46.0635C201.032 46.3515 200.737 46.5675 200.392 46.7115C200.047 46.8555 199.653 46.9515 199.234 47.0235C198.815 47.0715 198.421 47.0955 198.052 47.0955C197.559 47.0955 197.091 47.0475 196.623 46.9515C196.155 46.8555 195.736 46.7115 195.367 46.4955C194.997 46.2795 194.702 45.9915 194.48 45.6315C194.233 45.3195 194.11 44.8875 194.086 44.3595Z" fill="url(#paint3_linear_2172_3054)"/>
<path fill-rule="evenodd" clip-rule="evenodd" d="M100.192 13.8945C100.463 13.8945 100.685 14.1105 100.685 14.3745C100.685 14.6385 100.463 14.8545 100.192 14.8545C99.9211 14.8545 99.6994 14.6385 99.6994 14.3745C99.6994 14.1105 99.9211 13.8945 100.192 13.8945ZM92.5063 13.8945C92.7773 13.8945 92.999 14.1105 92.999 14.3745C92.999 14.6385 92.7773 14.8545 92.5063 14.8545C92.2354 14.8545 92.0137 14.6385 92.0137 14.3745C92.0137 14.1105 92.2354 13.8945 92.5063 13.8945Z" fill="black"/>
</g>
<defs>
<linearGradient id="paint0_linear_2172_3054" x1="98.5174" y1="13.0076" x2="101.681" y2="13.1086" gradientUnits="userSpaceOnUse">
<stop stop-color="#FF7F00"/>
<stop offset="1" stop-color="#92F7F3"/>
</linearGradient>
<linearGradient id="paint1_linear_2172_3054" x1="90.8338" y1="13.0076" x2="93.9977" y2="13.1086" gradientUnits="userSpaceOnUse">
<stop stop-color="#FF7F00"/>
<stop offset="1" stop-color="#92F7F3"/>
</linearGradient>
<linearGradient id="paint2_linear_2172_3054" x1="96.3371" y1="0" x2="96.3371" y2="26.3341" gradientUnits="userSpaceOnUse">
<stop stop-color="#2375B1"/>
<stop offset="1" stop-color="#7BCCFF"/>
</linearGradient>
<linearGradient id="paint3_linear_2172_3054" x1="103.015" y1="28.6875" x2="103.015" y2="54.3195" gradientUnits="userSpaceOnUse">
<stop stop-color="#F5F8FD"/>
<stop offset="1" stop-color="#7BCCFF"/>
</linearGradient>
<clipPath id="clip0_2172_3054">
<rect width="208" height="54" fill="white"/>
</clipPath>
</defs>
</svg>
