<svg width="201" height="172" viewBox="0 0 201 172" fill="none" xmlns="http://www.w3.org/2000/svg">
<g style="mix-blend-mode:screen">
<path d="M103.764 42.9974C103.764 42.047 103.388 41.1356 102.718 40.4636C102.048 39.7916 101.14 39.4141 100.193 39.4141C99.2453 39.4141 98.3369 39.7916 97.6671 40.4636C96.9974 41.1356 96.6211 42.047 96.6211 42.9974C97.0636 48.5599 98.2653 54.035 100.193 59.2694C102.12 54.035 103.321 48.5599 103.764 42.9974Z" fill="#186DA9"/>
<path d="M100.193 86.0026C102.165 86.0026 103.764 84.3983 103.764 82.4193C103.764 80.4403 102.165 78.8359 100.193 78.8359C98.2201 78.8359 96.6211 80.4403 96.6211 82.4193C96.6211 84.3983 98.2201 86.0026 100.193 86.0026Z" fill="#186DA9"/>
<path d="M21.6211 114.667H178.764V3.58334C178.764 2.63298 178.388 1.72155 177.718 1.04954C177.048 0.377531 176.14 0 175.193 0H25.1925C24.2453 0 23.3369 0.377531 22.6671 1.04954C21.9974 1.72155 21.6211 2.63298 21.6211 3.58334V114.667ZM46.3675 91.2714L90.9747 15.7452C91.9229 14.1394 93.2715 12.809 94.8878 11.8849C96.504 10.9608 98.3323 10.4748 100.193 10.4748C102.053 10.4748 103.881 10.9608 105.497 11.8849C107.114 12.809 108.462 14.1394 109.41 15.7452L154.018 91.2714C154.981 92.9037 155.497 94.7628 155.513 96.6599C155.529 98.557 155.044 100.425 154.108 102.073C153.172 103.721 151.817 105.092 150.183 106.045C148.548 106.998 146.691 107.5 144.8 107.5H55.5854C53.6945 107.5 51.8373 106.998 50.2024 106.045C48.5676 105.092 47.2132 103.721 46.277 102.073C45.3408 100.425 44.856 98.557 44.8719 96.6599C44.8878 94.7628 45.4038 92.9037 46.3675 91.2714Z" fill="#186DA9"/>
<path d="M55.5864 100.332H144.801C145.431 100.332 146.05 100.165 146.595 99.8469C147.14 99.529 147.592 99.0721 147.903 98.5225C148.215 97.9729 148.377 97.3502 148.371 96.7178C148.366 96.0853 148.194 95.4656 147.872 94.9216L103.265 19.3954C102.949 18.8607 102.499 18.4177 101.961 18.1101C101.422 17.8024 100.813 17.6406 100.194 17.6406C99.5739 17.6406 98.9649 17.8024 98.4263 18.1101C97.8878 18.4177 97.4384 18.8607 97.1221 19.3954L52.515 94.9216C52.1935 95.4656 52.0213 96.0853 52.0158 96.7178C52.0103 97.3502 52.1717 97.9729 52.4837 98.5225C52.7956 99.0721 53.247 99.529 53.792 99.8469C54.3369 100.165 54.9561 100.332 55.5864 100.332ZM100.194 32.2489C103.035 32.2489 105.76 33.3815 107.77 35.3975C109.779 37.4135 110.908 40.1478 110.908 42.9989C110.908 43.2497 109.097 68.0823 100.194 68.0823C91.29 68.0823 89.4793 43.2497 89.4793 42.9989C89.4793 40.1478 90.6081 37.4135 92.6174 35.3975C94.6267 33.3815 97.352 32.2489 100.194 32.2489ZM100.194 71.6657C102.313 71.6657 104.384 72.2961 106.146 73.4774C107.908 74.6586 109.281 76.3375 110.092 78.3018C110.903 80.2661 111.115 82.4276 110.702 84.5129C110.289 86.5982 109.268 88.5137 107.77 90.0171C106.271 91.5205 104.362 92.5444 102.284 92.9592C100.205 93.374 98.0512 93.1611 96.0934 92.3474C94.1356 91.5338 92.4623 90.1559 91.285 88.3881C90.1077 86.6203 89.4793 84.5419 89.4793 82.4157C89.4793 79.5646 90.6081 76.8303 92.6174 74.8143C94.6267 72.7983 97.352 71.6657 100.194 71.6657Z" fill="#186DA9"/>
<path d="M69.4127 157.669L75.5663 145.318C75.863 144.722 76.3192 144.221 76.8838 143.871C77.4484 143.521 78.099 143.336 78.7627 143.336H121.62C122.287 143.332 122.941 143.516 123.509 143.866C124.077 144.216 124.536 144.719 124.834 145.318L130.97 157.669H197.984L180.127 121.836H20.2556L2.39844 157.669H69.4127ZM178.763 150.503H171.62V143.336H178.763V150.503ZM168.048 129.003H175.191V136.169H168.048V129.003ZM164.477 150.503H157.334V143.336H164.477V150.503ZM153.763 129.003H160.906V136.169H153.763V129.003ZM139.477 129.003H146.62V136.169H139.477V129.003ZM135.906 143.336H150.191V150.503H135.906V143.336ZM125.191 129.003H132.334V136.169H125.191V129.003ZM110.906 129.003H118.048V136.169H110.906V129.003ZM96.6199 129.003H103.763V136.169H96.6199V129.003ZM82.3342 129.003H89.477V136.169H82.3342V129.003ZM68.0484 129.003H75.1913V136.169H68.0484V129.003ZM53.7627 129.003H60.9056V136.169H53.7627V129.003ZM50.1913 143.336H64.477V150.503H50.1913V143.336ZM39.477 129.003H46.6199V136.169H39.477V129.003ZM35.9056 143.336H43.0484V150.503H35.9056V143.336ZM25.1913 129.003H32.3342V136.169H25.1913V129.003ZM21.6199 143.336H28.7627V150.503H21.6199V143.336Z" fill="#186DA9"/>
<path d="M0.191406 164.836H200.191V172.003H0.191406V164.836Z" fill="#186DA9"/>
<path d="M80.9699 150.5L77.3984 157.667H122.984L119.413 150.5H80.9699Z" fill="#186DA9"/>
</g>
</svg>
