<svg width="201" height="157" viewBox="0 0 201 157" fill="none" xmlns="http://www.w3.org/2000/svg">
<g style="mix-blend-mode:screen">
<path d="M18.4776 120.91H183.629C185.447 120.91 186.659 119.698 186.659 117.879V15.1516C186.659 6.66671 179.993 0 171.508 0H30.5988C22.1139 0 15.4473 6.66671 15.4473 15.1516V117.879C15.4473 119.395 16.6594 120.91 18.4776 120.91ZM21.5079 15.1516C21.5079 10.0001 25.4473 6.06064 30.5988 6.06064H171.508C176.659 6.06064 180.599 10.0001 180.599 15.1516V114.849H21.5079V15.1516Z" fill="#035490"/>
<path d="M197.87 126.973H3.93069C2.11251 126.973 0.900391 128.185 0.900391 130.003V138.185C0.900391 148.185 9.08221 156.367 19.0822 156.367H182.719C192.719 156.367 200.9 148.185 200.9 138.185V130.003C200.9 128.185 199.385 126.973 197.87 126.973Z" fill="#035490"/>
<path d="M159.085 61.508C155.448 61.508 152.418 63.9322 151.206 66.9625H131.206C133.024 63.9322 134.539 60.2958 135.145 56.6595H143.933C144.842 56.6595 145.448 56.3564 146.055 55.7504L151.509 50.2958C152.721 50.9018 153.63 50.9018 154.842 50.9018C159.388 50.9018 163.327 46.9624 163.327 42.4169C163.327 37.8715 159.388 33.932 154.842 33.932C150.297 33.932 146.358 37.8715 146.358 42.4169C146.358 43.6291 146.661 44.8412 147.267 45.7503L142.721 50.2958H136.055C136.055 49.6897 136.055 49.0837 136.055 48.4776C136.055 29.3866 120.6 13.6289 101.206 13.6289C82.1151 13.6289 66.3575 29.3866 66.3575 48.4776V50.2958H59.0848L54.5394 45.7503C55.1454 44.5382 55.4484 43.6291 55.4484 42.4169C55.4484 37.8715 51.5091 33.932 46.9636 33.932C42.4181 33.932 38.4788 37.8715 38.4788 42.4169C38.4788 46.9624 42.4181 50.9018 46.9636 50.9018C48.1757 50.9018 49.3878 50.5988 50.2969 50.2958L55.7515 55.7504C56.3575 56.3564 56.9636 56.6595 57.8727 56.6595H67.2666C68.1757 60.2958 69.3878 63.6292 71.5091 66.9625H50.6C49.3878 63.6292 46.3575 61.508 42.7212 61.508C38.1757 61.508 34.2363 65.4474 34.2363 69.9929C34.2363 74.5383 38.1757 78.4777 42.7212 78.4777C46.3575 78.4777 49.3878 76.0535 50.6 73.0232H76.0545C77.5697 74.5383 78.7818 75.7505 80.6 76.9626V81.205H59.9939C59.0848 81.205 58.4788 81.5081 57.8727 82.1141L50.2969 89.6899C49.0848 89.0839 48.1757 88.7808 46.9636 88.7808C42.4181 88.7808 38.4788 92.7203 38.4788 97.2657C38.4788 101.811 42.4181 105.751 46.9636 105.751C51.5091 105.751 55.4484 101.811 55.4484 97.2657C55.4484 96.0536 55.1454 94.8415 54.8424 93.9324L61.5091 87.2657H80.903V90.599C80.903 92.1142 82.1151 93.6293 83.9333 93.6293H93.0242V82.7202C93.0242 80.902 94.2363 79.6899 96.0545 79.6899C97.8727 79.6899 99.0848 80.902 99.0848 82.7202V93.9324H104.236V82.7202C104.236 80.902 105.448 79.6899 107.267 79.6899C109.085 79.6899 110.297 80.902 110.297 82.7202V93.9324H119.388C120.903 93.9324 122.418 92.4172 122.418 90.9021V87.5687H140.903L147.57 94.2354C146.964 95.4475 146.661 96.3566 146.661 97.5688C146.661 102.114 150.6 106.054 155.145 106.054C159.691 106.054 163.63 102.114 163.63 97.5688C163.63 93.0233 159.691 89.0839 155.145 89.0839C153.933 89.0839 152.721 89.3869 151.812 89.993L144.236 82.4172C143.63 81.8111 143.024 81.5081 142.115 81.5081H122.418V77.2656C123.933 76.0535 125.448 74.8414 126.964 73.3262H151.812C153.024 76.6596 156.055 78.7808 159.691 78.7808C164.236 78.7808 168.176 74.8414 168.176 70.2959C167.57 65.1443 163.63 61.508 159.085 61.508ZM154.842 40.2957C156.055 40.2957 157.267 41.5078 157.267 42.72C157.267 43.9321 156.055 45.1442 154.842 45.1442C153.63 45.1442 152.418 43.9321 152.418 42.72C152.418 41.5078 153.63 40.2957 154.842 40.2957ZM46.9636 45.1442C45.7515 45.1442 44.5394 43.9321 44.5394 42.72C44.5394 41.5078 45.7515 40.2957 46.9636 40.2957C48.1757 40.2957 49.3878 41.5078 49.3878 42.72C49.3878 43.9321 48.1757 45.1442 46.9636 45.1442ZM42.7212 72.4171C41.5091 72.4171 40.2969 71.205 40.2969 69.9929C40.2969 68.7807 41.5091 67.5686 42.7212 67.5686C43.9333 67.5686 45.1454 68.7807 45.1454 69.9929C45.1454 71.205 43.9333 72.4171 42.7212 72.4171ZM46.9636 99.993C45.7515 99.993 44.5394 98.7809 44.5394 97.5688C44.5394 96.3566 45.7515 95.1445 46.9636 95.1445C48.1757 95.1445 49.3878 96.3566 49.3878 97.5688C49.3878 98.7809 48.1757 99.993 46.9636 99.993ZM89.0848 53.6291C86.0545 53.6291 83.3272 51.2049 83.3272 47.8715C83.3272 44.5382 85.7515 42.1139 89.0848 42.1139C92.1151 42.1139 94.8424 44.5382 94.8424 47.8715C94.8424 51.2049 92.1151 53.6291 89.0848 53.6291ZM112.721 53.6291C109.691 53.6291 106.964 51.2049 106.964 47.8715C106.964 44.5382 109.388 42.1139 112.721 42.1139C116.055 42.1139 118.479 44.5382 118.479 47.8715C118.479 51.2049 116.055 53.6291 112.721 53.6291ZM154.842 95.1445C156.055 95.1445 157.267 96.3566 157.267 97.5688C157.267 98.7809 156.055 99.993 154.842 99.993C153.63 99.993 152.418 98.7809 152.418 97.5688C152.418 96.0536 153.63 95.1445 154.842 95.1445ZM159.085 72.4171C157.873 72.4171 156.661 71.205 156.661 69.9929C156.661 68.7807 157.873 67.5686 159.085 67.5686C160.297 67.5686 161.509 68.7807 161.509 69.9929C161.509 71.205 160.297 72.4171 159.085 72.4171Z" fill="#035490"/>
</g>
</svg>
