<svg width="173" height="172" viewBox="0 0 173 172" fill="none" xmlns="http://www.w3.org/2000/svg">
<g style="mix-blend-mode:screen">
<path d="M65.6641 151.931H107.249L110.986 142.675C111.736 140.816 113.539 139.6 115.543 139.6H159.373V61.1124C159.373 59.306 157.903 57.8363 156.097 57.8363H150.303V62.4682C150.303 64.7369 148.751 66.7108 146.545 67.2445L135.649 69.8826C134.979 71.8264 134.233 73.6485 133.398 75.3748L139.222 84.7999C140.429 86.7521 140.124 89.28 138.487 90.8886L124.893 104.246C123.301 105.81 120.853 106.105 118.936 104.964L109.215 99.1795C107.79 99.8627 106.343 100.479 104.881 101.026L104.772 121.241C104.718 131.323 96.4613 139.525 86.3669 139.525C76.2182 139.525 67.9611 131.278 67.9611 121.142V100.954C66.5229 100.406 65.0881 99.7837 63.6636 99.092L53.996 104.86C52.0768 106.004 49.6265 105.71 48.033 104.144L34.4519 90.7934C32.8132 89.1822 32.5096 86.6507 33.7209 84.6981L39.5869 75.2429C38.735 73.4861 37.9757 71.6503 37.3153 69.748L26.4572 67.121C24.2517 66.5874 22.6986 64.6134 22.6986 62.3443V57.8359H16.905C15.0986 57.8359 13.6289 59.3057 13.6289 61.112V139.6H57.3706C59.3743 139.6 61.1774 140.816 61.9275 142.674L65.6641 151.931Z" fill="#035490"/>
<path d="M111.904 89.3437L120.703 94.5798L128.795 86.6277L123.56 78.1571C122.615 76.6275 122.581 74.7039 123.47 73.1415C124.928 70.5821 126.109 67.7166 127.081 64.3809C127.574 62.6911 128.932 61.3937 130.643 60.9795L140.471 58.6002V47.454L130.683 45.0857C128.967 44.6704 127.605 43.3664 127.116 41.6696C126.205 38.5067 124.981 35.5562 123.479 32.8998C122.595 31.3367 122.634 29.4157 123.581 27.8901L128.853 19.3915L120.781 11.456L112.025 16.6796C110.527 17.5734 108.668 17.6061 107.141 16.7667C104.464 15.2962 101.535 14.1238 98.1855 13.1823C96.488 12.7048 95.1763 11.3546 94.7481 9.64376L92.3361 0H80.7838L78.378 9.60701C77.9483 11.3222 76.6304 12.6743 74.927 13.1481C71.7185 14.0401 68.7004 15.251 65.9569 16.7472C64.4294 17.5808 62.5749 17.5436 61.0817 16.6509L52.284 11.3902L44.2022 19.3217L49.4338 27.7813C50.3798 29.3109 50.4147 31.2349 49.5246 32.7976C48.0656 35.36 46.8843 38.2244 45.9137 41.5542C45.4212 43.2444 44.0618 44.5421 42.3506 44.9556L32.5234 47.3312V58.4763L42.3124 60.8446C44.0283 61.2599 45.39 62.5639 45.8788 64.2604C46.7902 67.4236 48.0141 70.3745 49.5158 73.0309C50.3997 74.594 50.3604 76.5146 49.414 78.0402L44.1419 86.5388L52.2141 94.4743L60.97 89.2507C62.4672 88.3577 64.3254 88.3242 65.8536 89.1636C66.5526 89.5477 67.2538 89.9104 67.9573 90.2519V73.9284C60.3224 68.5122 55.8452 60.146 55.8452 51.0462C55.8452 39.5663 63.1126 29.2091 74.3599 24.6607C77.4551 23.3049 81.2134 25.839 81.1167 29.2165V45.9122L86.4976 50.306L91.8785 45.9122V29.2165C91.7819 25.839 95.5409 23.3042 98.6354 24.6607C109.883 29.2095 117.15 39.5663 117.15 51.0462C117.15 60.1515 112.667 68.5225 105.024 73.9383L104.936 90.3283C105.643 89.9898 106.324 89.5903 107.039 89.2526C109.382 88.146 111.131 88.8836 111.904 89.3437Z" fill="#035490"/>
<path d="M71.2939 38.1484C67.7558 41.5888 65.6797 46.1747 65.6797 51.0488C65.6797 57.5356 69.2906 63.4979 75.3393 66.9985C76.8571 67.8769 77.7917 69.498 77.7917 71.2518V121.144C77.7917 125.86 81.6393 129.698 86.3686 129.698C91.0728 129.698 94.9204 125.881 94.9458 121.19L95.2152 71.2254C95.2247 69.4811 96.1582 67.8725 97.668 66.9989C103.716 63.4982 107.328 57.5356 107.328 51.0492C107.328 46.1751 105.251 41.5892 101.713 38.1488V48.2472C101.713 49.7228 101.05 51.1205 99.907 52.054L89.6116 60.4599C87.8023 61.937 85.2043 61.937 83.3953 60.4599L73.0999 52.054C71.9566 51.1205 71.2936 49.7232 71.2936 48.2472L71.2939 38.1484Z" fill="#035490"/>
<path d="M0.5 149.426V168.624C0.5 170.485 2.02007 171.998 3.88855 171.998H169.111C170.98 171.998 172.5 170.485 172.5 168.624V149.426H118.858L115.121 158.681C114.371 160.54 112.568 161.756 110.564 161.756H62.3476C60.3439 161.756 58.5408 160.54 57.7907 158.682L54.0541 149.426H0.5Z" fill="#035490"/>
</g>
</svg>
