<svg width="39" height="40" viewBox="0 0 39 40" fill="none" xmlns="http://www.w3.org/2000/svg">
<path d="M18.0502 4.65215C18.3912 3.50987 20.0088 3.50987 20.3498 4.65215L23.0005 13.5305C23.1554 14.0491 23.6382 14.3998 24.1792 14.3868L33.4421 14.1642C34.6339 14.1356 35.1337 15.674 34.1527 16.3514L26.5281 21.6159C26.0827 21.9234 25.8983 22.4909 26.0778 23.0015L29.1519 31.7422C29.5475 32.8668 28.2388 33.8176 27.2915 33.094L19.9285 27.4693C19.4984 27.1407 18.9016 27.1407 18.4715 27.4693L11.1085 33.094C10.1612 33.8176 8.85254 32.8668 9.24805 31.7422L12.3222 23.0015C12.5017 22.4909 12.3173 21.9234 11.8719 21.6159L4.24726 16.3514C3.26628 15.674 3.76615 14.1356 4.9579 14.1642L14.2208 14.3868C14.7618 14.3998 15.2446 14.0491 15.3995 13.5305L18.0502 4.65215Z" fill="#007929"/>
</svg>
