<svg width="201" height="200" viewBox="0 0 201 200" fill="none" xmlns="http://www.w3.org/2000/svg">
<g style="mix-blend-mode:screen">
<path d="M100.435 16.6719H100.335V16.7052C99.8354 16.7052 99.3354 16.8385 98.9021 17.0719L41.7021 48.7385C40.6354 49.3385 39.9688 50.4719 39.9688 51.6719V63.6385C40.1354 94.0052 57.4688 121.939 85.2021 136.505L85.9688 136.905L91.3688 125.972C93.0354 122.605 96.4688 120.539 100.335 120.539C104.202 120.539 107.635 122.605 109.302 125.905L114.735 136.972L115.635 136.505C143.369 121.939 160.702 94.0052 160.869 63.6385V51.6719C160.869 50.4719 160.202 49.3385 159.135 48.7385L101.935 17.0719C101.469 16.8385 101.002 16.7052 100.502 16.7052V16.6719C100.469 16.6719 100.469 16.6719 100.435 16.6719ZM122.902 65.6719C124.202 64.3719 126.302 64.3719 127.635 65.6719C128.935 66.9719 128.935 69.0719 127.635 70.3719L92.4688 105.539C91.8354 106.139 91.0021 106.505 90.1354 106.505C89.2354 106.505 88.4021 106.139 87.7688 105.539L73.4021 91.1385C72.1021 89.8385 72.1021 87.7385 73.4021 86.4385C74.7021 85.1385 76.8021 85.1385 78.1021 86.4385L90.1354 98.4385L122.902 65.6719Z" fill="#035490"/>
<path d="M129.599 148.303C129.199 147.103 128.166 146.236 126.899 146.036L110.599 143.67L103.333 128.903C102.199 126.636 98.466 126.636 97.3327 128.903L90.066 143.67L73.766 146.036C72.4993 146.236 71.466 147.103 71.066 148.303C70.6993 149.503 70.9993 150.836 71.9327 151.736L83.6993 163.203L80.9327 179.436C80.7327 180.703 81.2327 181.97 82.266 182.703C83.2993 183.436 84.6327 183.536 85.766 182.97L100.333 175.303L114.899 182.97C115.399 183.203 115.933 183.336 116.466 183.336C117.133 183.336 117.833 183.136 118.399 182.703C119.433 181.97 119.966 180.703 119.733 179.436L116.966 163.203L128.733 151.736C129.666 150.836 129.966 149.503 129.599 148.303Z" fill="#035490"/>
<path d="M32.1672 163.772C33.2005 164.539 34.5339 164.639 35.6672 164.039L46.7005 158.239L57.7339 164.039C58.2339 164.305 58.7672 164.439 59.3005 164.439C59.9672 164.439 60.6672 164.205 61.2339 163.772C62.2672 163.039 62.8005 161.772 62.5672 160.539L60.4672 148.239L69.4005 139.539C70.3005 138.639 70.6339 137.305 70.2339 136.105C69.8339 134.905 68.8005 134.039 67.5339 133.839L55.2005 132.039L49.7005 120.872C48.5672 118.605 44.8339 118.605 43.7005 120.872L38.2005 132.039L25.8672 133.839C24.6005 134.039 23.5672 134.905 23.1672 136.105C22.7672 137.305 23.1005 138.639 24.0005 139.539L32.9338 148.239L30.8339 160.539C30.6005 161.772 31.1339 163.039 32.1672 163.772Z" fill="#035490"/>
<path d="M177.835 136.105C177.435 134.905 176.402 134.039 175.135 133.839L162.802 132.039L157.302 120.872C156.169 118.605 152.435 118.605 151.302 120.872L145.802 132.039L133.469 133.839C132.202 134.039 131.169 134.905 130.769 136.105C130.369 137.305 130.702 138.639 131.602 139.539L140.535 148.239L138.435 160.539C138.235 161.772 138.735 163.039 139.769 163.772C140.802 164.539 142.135 164.639 143.269 164.039L154.302 158.239L165.335 164.039C165.835 164.305 166.369 164.439 166.902 164.439C167.569 164.439 168.269 164.205 168.835 163.772C169.869 163.039 170.402 161.772 170.169 160.539L168.069 148.239L177.002 139.539C177.902 138.639 178.235 137.305 177.835 136.105Z" fill="#035490"/>
</g>
</svg>
