<svg width="201" height="200" viewBox="0 0 201 200" fill="none" xmlns="http://www.w3.org/2000/svg">
<g style="mix-blend-mode:screen">
<path d="M109.875 103.125H122.375C124.097 103.125 125.5 101.722 125.5 100C125.5 98.2781 124.097 96.875 122.375 96.875H109.875C108.153 96.875 106.75 98.2781 106.75 100C106.75 101.722 108.153 103.125 109.875 103.125Z" fill="#035490"/>
<path d="M125.5 125C125.5 123.278 124.097 121.875 122.375 121.875H109.875C108.153 121.875 106.75 123.278 106.75 125C106.75 126.722 108.153 128.125 109.875 128.125H122.375C124.097 128.125 125.5 126.722 125.5 125Z" fill="#035490"/>
<path d="M109.875 115.625H122.375C124.097 115.625 125.5 114.222 125.5 112.5C125.5 110.778 124.097 109.375 122.375 109.375H109.875C108.153 109.375 106.75 110.778 106.75 112.5C106.75 114.222 108.153 115.625 109.875 115.625Z" fill="#035490"/>
<path d="M123.719 45.0469L125.5 45.8937V65.625H138V45.8937L139.781 45.0469C146.294 41.9469 150.5 35.3031 150.5 28.125C150.5 17.7844 142.091 9.375 131.75 9.375C121.409 9.375 113 17.7844 113 28.125C113 35.3031 117.206 41.9469 123.719 45.0469ZM131.75 15.625C138.644 15.625 144.25 21.2312 144.25 28.125C144.25 35.0188 138.644 40.625 131.75 40.625C124.856 40.625 119.25 35.0188 119.25 28.125C119.25 21.2312 124.856 15.625 131.75 15.625Z" fill="#035490"/>
<path d="M109.875 90.625H122.375C124.097 90.625 125.5 89.2219 125.5 87.5C125.5 85.7781 124.097 84.375 122.375 84.375H119.25H109.875C108.153 84.375 106.75 85.7781 106.75 87.5C106.75 89.2219 108.153 90.625 109.875 90.625Z" fill="#035490"/>
<path d="M131.75 34.375C135.202 34.375 138 31.5768 138 28.125C138 24.6732 135.202 21.875 131.75 21.875C128.298 21.875 125.5 24.6732 125.5 28.125C125.5 31.5768 128.298 34.375 131.75 34.375Z" fill="#035490"/>
<path d="M131.75 178.125C135.202 178.125 138 175.327 138 171.875C138 168.423 135.202 165.625 131.75 165.625C128.298 165.625 125.5 168.423 125.5 171.875C125.5 175.327 128.298 178.125 131.75 178.125Z" fill="#035490"/>
<path d="M139.781 154.953L138 154.106V84.375H131.175C131.525 85.3563 131.75 86.4 131.75 87.5C131.75 89.9094 130.809 92.0875 129.313 93.75C130.813 95.4125 131.75 97.5906 131.75 100C131.75 102.409 130.809 104.587 129.313 106.25C130.813 107.913 131.75 110.091 131.75 112.5C131.75 114.909 130.809 117.088 129.313 118.75C130.813 120.412 131.75 122.591 131.75 125C131.75 129.069 129.128 132.506 125.5 133.8V154.106L123.719 154.953C117.206 158.053 113 164.697 113 171.875C113 182.216 121.409 190.625 131.75 190.625C142.091 190.625 150.5 182.216 150.5 171.875C150.5 164.697 146.294 158.053 139.781 154.953ZM131.75 184.375C124.856 184.375 119.25 178.769 119.25 171.875C119.25 164.981 124.856 159.375 131.75 159.375C138.644 159.375 144.25 164.981 144.25 171.875C144.25 178.769 138.644 184.375 131.75 184.375Z" fill="#035490"/>
<path d="M172.375 71.875H191.125V128.125H172.375V71.875Z" fill="#035490"/>
<path d="M156.906 76.45C153.956 73.5 150.031 71.875 145.859 71.875H113C113 75.3219 115.803 78.125 119.25 78.125H122.375H142.419L144.094 79.8C147.044 82.75 150.969 84.375 155.141 84.375H159.875V90.625H155.141C151.25 90.625 147.528 89.5938 144.25 87.7031V128.047C146.222 127.881 148.166 127.359 149.938 126.475L159.138 121.875H166.125V78.125H158.581L156.906 76.45Z" fill="#035490"/>
<path d="M83.5312 63.7984C90.0438 60.6984 94.25 54.0547 94.25 46.8766C94.25 40.5359 91.2094 36.3797 88 33.7578V48.5484L75.5 56.8828L63 48.5484V33.7578C59.7906 36.3797 56.75 40.5359 56.75 46.8766C56.75 54.0547 60.9563 60.6984 67.4688 63.7984L69.25 64.6453V154.108L67.4688 154.955C60.9563 158.055 56.75 164.698 56.75 171.877C56.75 182.217 65.1594 190.627 75.5 190.627C85.8406 190.627 94.25 182.217 94.25 171.877C94.25 164.698 90.0438 158.055 83.5312 154.955L81.75 154.108V64.6453L83.5312 63.7984ZM88 171.877C88 178.77 82.3938 184.377 75.5 184.377C68.6062 184.377 63 178.77 63 171.877C63 164.983 68.6062 159.377 75.5 159.377C82.3938 159.377 88 164.983 88 171.877Z" fill="#035490"/>
<path d="M75.5 178.125C78.9518 178.125 81.75 175.327 81.75 171.875C81.75 168.423 78.9518 165.625 75.5 165.625C72.0482 165.625 69.25 168.423 69.25 171.875C69.25 175.327 72.0482 178.125 75.5 178.125Z" fill="#035490"/>
<path d="M25.5 178.125C27.2259 178.125 28.625 176.726 28.625 175C28.625 173.274 27.2259 171.875 25.5 171.875C23.7741 171.875 22.375 173.274 22.375 175C22.375 176.726 23.7741 178.125 25.5 178.125Z" fill="#035490"/>
<path d="M33.3094 88.5188C38.1312 85.725 41.125 80.5438 41.125 75C41.125 66.3844 34.1156 59.375 25.5 59.375C16.8844 59.375 9.875 66.3844 9.875 75C9.875 80.5438 12.8687 85.725 17.6906 88.5188L19.25 89.4219V160.581L17.6906 161.484C12.8687 164.275 9.875 169.456 9.875 175C9.875 183.616 16.8844 190.625 25.5 190.625C34.1156 190.625 41.125 183.616 41.125 175C41.125 169.456 38.1312 164.275 33.3094 161.481L31.75 160.578V89.4219L33.3094 88.5188ZM34.875 175C34.875 180.169 30.6688 184.375 25.5 184.375C20.3313 184.375 16.125 180.169 16.125 175C16.125 169.831 20.3313 165.625 25.5 165.625C30.6688 165.625 34.875 169.831 34.875 175ZM25.5 84.375C20.3313 84.375 16.125 80.1688 16.125 75C16.125 69.8313 20.3313 65.625 25.5 65.625C30.6688 65.625 34.875 69.8313 34.875 75C34.875 80.1688 30.6688 84.375 25.5 84.375Z" fill="#035490"/>
<path d="M25.5 78.125C27.2259 78.125 28.625 76.7259 28.625 75C28.625 73.2741 27.2259 71.875 25.5 71.875C23.7741 71.875 22.375 73.2741 22.375 75C22.375 76.7259 23.7741 78.125 25.5 78.125Z" fill="#035490"/>
</g>
</svg>
