<svg width="201" height="200" viewBox="0 0 201 200" fill="none" xmlns="http://www.w3.org/2000/svg">
<g style="mix-blend-mode:screen" clip-path="url(#clip0_2004_63728)">
<path d="M99.2452 101.448C99.8419 102.332 100.39 103.19 100.929 104.035C96.3903 106.919 88.7871 110.803 80.6936 110.803C75.5032 110.803 70.8452 109.216 66.8548 106.09C48.8129 91.9355 35.7903 55.2161 35.2419 53.6581C34.9226 52.7452 35.029 51.7387 35.529 50.9129C36.0323 50.0871 36.8742 49.529 37.8323 49.3936C38.1226 49.3516 45.029 48.3871 54.7 48.3871C70.929 48.3871 92.9516 51.1064 105.7 64.0613C118.877 77.4581 107.226 97.9581 106.003 100.006C105.548 99.3 105.1 98.5935 104.61 97.8645C98.9806 89.3581 91.2645 82.0097 82.2968 76.6161C80.7677 75.7 78.7871 76.1968 77.8677 77.7161C76.9484 79.2452 77.4419 81.2258 78.9677 82.1452C87.1258 87.0516 94.1323 93.7194 99.2452 101.448ZM163.9 83.3613C163.597 83.2419 156.4 80.4258 147.965 80.4258C139.59 80.4258 132.723 83.2613 128.1 88.6226C121.123 96.7 122.406 106.506 123.716 111.484C128.371 107.342 133.332 103.268 137.423 100.539C138.9 99.5452 140.91 99.9516 141.897 101.432C142.884 102.913 142.484 104.919 141.003 105.906C136.942 108.613 132.006 112.697 127.458 116.777C129.306 117.429 133.616 118.732 138.561 118.732C145.106 118.732 150.565 116.416 154.342 112.032C163.645 101.245 165.813 87.4226 165.9 86.8387C166.123 85.3581 165.294 83.9161 163.9 83.3613ZM124.765 114.71C124.694 114.545 124.203 113.342 123.713 111.487C120.365 114.465 117.171 117.477 114.59 120.055C113.481 113.568 110.661 107.277 106.006 100.013C105.968 100.077 105.91 100.181 105.89 100.206C105.706 100.51 105.474 100.777 105.203 101.003C105.032 101.145 103.445 102.439 100.929 104.035C110.306 118.835 110.906 128.319 104.361 147.339C103.781 149.023 104.677 150.858 106.361 151.439C106.71 151.555 107.065 151.613 107.413 151.613C108.752 151.613 110.003 150.771 110.461 149.435C113.197 141.49 114.755 134.913 115.077 128.89C117.268 126.381 122.097 121.584 127.458 116.777C126.9 116.581 126.539 116.439 126.487 116.416C125.713 116.094 125.094 115.481 124.765 114.71ZM170.165 1.21935C168.958 0.719355 167.574 0.993549 166.648 1.91935L153.413 15.1548C137.69 5.3 119.506 0 100.5 0C45.3613 0 0.5 44.8613 0.5 100C0.5 115.439 3.93226 130.255 10.7032 144.035C11.2645 145.177 12.4097 145.839 13.6 145.839C14.0774 145.839 14.5613 145.732 15.0194 145.506C16.6194 144.719 17.2774 142.787 16.4935 141.19C10.1613 128.303 6.95161 114.445 6.95161 100C6.95161 48.4161 48.9161 6.45161 100.5 6.45161C117.771 6.45161 134.323 11.1097 148.742 19.8258L139.277 29.2903C138.355 30.2129 138.077 31.6 138.577 32.8065C139.077 34.0129 140.255 34.7968 141.558 34.7968H168.929C170.71 34.7968 172.155 33.3516 172.155 31.571V4.2C172.155 2.89355 171.371 1.71935 170.165 1.21935ZM190.297 55.9645C189.51 54.3645 187.574 53.7 185.981 54.4903C184.381 55.2774 183.723 57.2097 184.506 58.8064C190.839 71.6968 194.048 85.5548 194.048 100C194.048 151.584 152.084 193.548 100.5 193.548C83.2323 193.548 66.6774 188.89 52.2613 180.174L61.7226 170.71C62.6452 169.787 62.9226 168.4 62.4226 167.194C61.9226 165.987 60.7452 165.203 59.4419 165.203H32.071C31.2161 165.203 30.3935 165.542 29.7903 166.148C29.1871 166.755 28.8452 167.574 28.8452 168.429V195.803C28.8452 197.106 29.6323 198.284 30.8355 198.784C31.2355 198.948 31.6548 199.029 32.071 199.029C32.9097 199.029 33.7355 198.7 34.3516 198.084L47.5871 184.848C63.3097 194.703 81.4968 200 100.5 200C155.639 200 200.5 155.139 200.5 100C200.5 84.5613 197.068 69.7452 190.297 55.9645Z" fill="#035490"/>
</g>
<defs>
<clipPath id="clip0_2004_63728">
<rect width="200" height="200" fill="white" transform="translate(0.5)"/>
</clipPath>
</defs>
</svg>
