<svg width="177" height="32" viewBox="0 0 177 32" fill="none" xmlns="http://www.w3.org/2000/svg">
<path d="M155.306 31.4686H161.162V21.8277L169.334 31.4686H176.5L166.987 20.3576L175.113 10.7235H168.592L161.162 19.6031V0L155.306 0.781036V31.4686ZM141.8 10.1921C135.299 10.1921 130.784 14.6416 130.784 21.0928C130.784 27.544 135.299 31.9935 141.8 31.9935C148.302 31.9935 152.817 27.544 152.817 21.0928C152.817 14.6416 148.302 10.1921 141.8 10.1921ZM141.8 26.914C138.788 26.914 136.725 24.5448 136.725 21.0928C136.725 17.6408 138.788 15.2716 141.8 15.2716C144.812 15.2716 146.876 17.6408 146.876 21.0928C146.876 24.5448 144.812 26.914 141.8 26.914ZM118.001 10.1921C111.5 10.1921 106.985 14.6416 106.985 21.0928C106.985 27.544 111.5 31.9935 118.001 31.9935C124.502 31.9935 129.017 27.544 129.017 21.0928C129.017 14.6416 124.502 10.1921 118.001 10.1921ZM118.001 26.914C114.989 26.914 112.925 24.5448 112.925 21.0928C112.925 17.6408 114.989 15.2716 118.001 15.2716C121.013 15.2716 123.077 17.6408 123.077 21.0928C123.077 24.5448 121.013 26.914 118.001 26.914ZM95.5881 10.1921C92.8793 10.1921 90.6348 11.2749 89.2287 13.2568V0L83.366 0.774364V31.4619H88.5644L88.6675 28.2593C90.0543 30.6481 92.5374 31.9935 95.5881 31.9935C101.148 31.9935 105.218 27.3995 105.218 21.0928C105.218 14.7859 101.167 10.1921 95.5881 10.1921ZM94.2015 26.914C91.1894 26.914 89.1256 24.5448 89.1256 21.0928C89.1256 17.6408 91.1894 15.2716 94.2015 15.2716C97.2134 15.2716 99.2774 17.6408 99.2774 21.0928C99.2774 24.5448 97.2134 26.914 94.2015 26.914ZM71.6274 27.183C68.5187 27.183 66.2871 25.7129 65.5261 23.1798H79.954C80.096 22.4054 80.1927 21.4865 80.1927 20.8696C80.1927 14.1953 76.5227 10.1921 70.3568 10.1921C64.1329 10.1921 59.8244 14.6416 59.8244 21.0928C59.8244 27.6293 64.3393 31.9935 71.0406 31.9935C74.5104 31.9935 77.8836 30.8123 79.9927 28.85L77.8837 25.0699C75.8392 26.5071 73.8332 27.183 71.6274 27.183ZM70.3181 14.8253C73.0271 14.8253 74.7555 16.4987 74.7555 19.0911V19.1109H65.4035C65.9647 16.3611 67.7124 14.8253 70.3181 14.8253ZM50.653 32C53.6844 32 56.6512 30.8187 58.7408 28.7711L56.4512 24.8532C54.8258 26.1396 52.9814 26.8351 51.2335 26.8351C47.9828 26.8351 45.8157 24.525 45.8157 21.0992C45.8157 17.6735 47.9828 15.3634 51.2335 15.3634C52.8393 15.3634 54.5872 15.954 56.0062 16.9976L58.3346 12.9942C56.4512 11.2617 53.536 10.1985 50.6464 10.1985C44.2871 10.1985 39.7916 14.7137 39.7916 21.0992C39.798 27.4652 44.2934 32 50.653 32ZM32.0326 10.7235L31.9295 13.9525C30.5427 11.5439 28.0596 10.1985 25.009 10.1985C19.4299 10.1985 15.3794 14.7926 15.3794 21.0992C15.3794 27.4061 19.4557 32 25.009 32C28.0596 32 30.5491 30.6546 31.9295 28.2658L32.0326 31.4684H37.2311V10.7235H32.0326ZM26.3955 26.914C23.3836 26.914 21.3196 24.5448 21.3196 21.0928C21.3196 17.6408 23.3836 15.2716 26.3955 15.2716C29.4076 15.2716 31.4714 17.6408 31.4714 21.0928C31.4714 24.5448 29.4011 26.914 26.3955 26.914ZM14.9408 10.7625H9.67144V8.99039C9.67144 6.33903 10.6905 5.32191 13.3349 5.32191C14.154 5.32191 14.8182 5.34152 15.1989 5.38093V0.832983C14.4764 0.629437 12.7157 0.426093 11.6967 0.426093C6.31109 0.426093 3.82797 3.01175 3.82797 8.59663V10.7558H0.5V15.7699H3.82797V31.4615H9.6778V15.7763H14.038L14.9408 10.7625Z" fill="#0866FF"/>
</svg>
