<svg width="220" height="52" viewBox="0 0 220 52" fill="none" xmlns="http://www.w3.org/2000/svg">
<path d="M55.3053 17.0718H38.0051L32.6614 0.882812L27.2988 17.0731L10 17.0555L24.0107 27.07L18.6507 43.2414L32.6614 33.2432L46.6559 43.2414L41.3122 27.07L55.3053 17.0718Z" fill="#04DA8D"/>
<path d="M42.5143 30.7337L41.3115 27.0723L32.6621 33.2454L42.5143 30.7337Z" fill="#126849"/>
<path d="M64.082 13.7533H83.2364V17.2659H75.706V37.0162H71.5624V17.2659H64.0645V13.752H64.0807L64.082 13.7533ZM82.4187 20.1713H85.9596V23.4229H86.0258C86.1434 22.963 86.3596 22.5193 86.6772 22.0919C87.3563 21.1758 88.2754 20.4657 89.3329 20.0401C89.8699 19.8271 90.4418 19.7156 91.0195 19.7114C91.452 19.7114 91.7709 19.7276 91.9385 19.7452C92.1047 19.7614 92.2709 19.7939 92.4547 19.8101V23.389C92.1836 23.3416 91.9109 23.3032 91.6371 23.2741C91.3653 23.2419 91.0918 23.2256 90.8181 23.2254C90.1829 23.2254 89.5829 23.3566 89.0153 23.6041C88.4476 23.8489 87.9625 24.2263 87.5462 24.7038C87.1021 25.2376 86.7619 25.8501 86.5434 26.5094C86.2934 27.2317 86.1758 28.0514 86.1758 28.9887V37H82.4025V20.1713H82.4187ZM109.806 37.0176H106.099V34.6695H106.032C105.564 35.5244 104.88 36.1979 103.961 36.7065C103.042 37.2151 102.107 37.4775 101.156 37.4775C98.9013 37.4775 97.2633 36.9364 96.2632 35.8354C95.2604 34.7358 94.759 33.0775 94.759 30.8607V20.1726H98.5336V30.4995C98.5336 31.9779 98.8175 33.0289 99.4026 33.6362C99.9703 34.2435 100.788 34.5559 101.823 34.5559C102.625 34.5559 103.276 34.4409 103.81 34.1934C104.345 33.9472 104.779 33.6362 105.096 33.225C105.43 32.8314 105.664 32.339 105.815 31.7804C105.964 31.2218 106.032 30.6145 106.032 29.9585V20.1889H109.806V37.0176ZM116.235 31.6168C116.353 32.6988 116.769 33.4563 117.488 33.8986C118.222 34.326 119.091 34.5559 120.11 34.5559C120.461 34.5559 120.861 34.5221 121.313 34.4734C121.763 34.4234 122.197 34.3084 122.582 34.1623C122.982 34.0135 123.298 33.7836 123.566 33.4887C123.817 33.1912 123.933 32.8151 123.917 32.339C123.915 32.1181 123.866 31.9 123.774 31.6992C123.682 31.4983 123.549 31.319 123.383 31.1731C123.048 30.862 122.632 30.6321 122.113 30.4346C121.535 30.2342 120.943 30.0751 120.342 29.9585C119.675 29.8273 119.007 29.6785 118.323 29.5311C117.634 29.3819 116.954 29.1954 116.285 28.9725C115.658 28.7713 115.066 28.4723 114.532 28.0865C114.012 27.7231 113.588 27.2385 113.296 26.6745C112.979 26.0996 112.828 25.3936 112.828 24.5401C112.828 23.6203 113.062 22.8656 113.513 22.2407C113.969 21.621 114.556 21.1109 115.234 20.7475C115.962 20.3623 116.744 20.0909 117.554 19.9427C118.406 19.7953 119.225 19.7127 119.992 19.7127C120.877 19.7127 121.729 19.8115 122.532 19.9927C123.309 20.1593 124.05 20.4649 124.718 20.8949C125.37 21.3061 125.904 21.8471 126.339 22.5045C126.773 23.1605 127.04 23.9652 127.156 24.9012H123.216C123.032 24.0153 122.63 23.408 121.98 23.1118C121.329 22.8007 120.577 22.6519 119.742 22.6519C119.475 22.6519 119.157 22.6681 118.791 22.7182C118.438 22.7651 118.091 22.8476 117.754 22.9643C117.447 23.0777 117.168 23.2568 116.937 23.4891C116.824 23.6104 116.737 23.7526 116.68 23.9077C116.623 24.0627 116.596 24.2275 116.603 24.3927C116.603 24.8525 116.769 25.2137 117.087 25.4923C117.404 25.7709 117.822 26.0009 118.339 26.1983C118.857 26.3796 119.442 26.5433 120.11 26.6745C120.777 26.8057 121.461 26.9531 122.164 27.1019C122.848 27.2493 123.516 27.4468 124.185 27.6591C124.852 27.8728 125.436 28.169 125.955 28.5464C126.473 28.9238 126.89 29.3837 127.206 29.9423C127.524 30.4995 127.692 31.2056 127.692 32.0266C127.692 33.0275 127.458 33.8661 126.989 34.5721C126.523 35.2619 125.921 35.8354 125.186 36.2629C124.416 36.7066 123.582 37.0278 122.714 37.2151C121.831 37.4096 120.929 37.5084 120.025 37.5099C119.012 37.5213 118.002 37.3999 117.02 37.1488C116.101 36.9026 115.3 36.5415 114.632 36.0667C113.972 35.5869 113.43 34.9635 113.046 34.2435C112.662 33.5212 112.461 32.6501 112.428 31.6492H116.235V31.6168ZM128.693 20.174H131.549V15.1153H135.323V20.174H138.729V22.9468H135.325V31.9454C135.325 32.3377 135.341 32.6677 135.375 32.9626C135.407 33.2426 135.491 33.4887 135.608 33.6848C135.736 33.8909 135.93 34.0474 136.159 34.1285C136.41 34.2272 136.726 34.2773 137.161 34.2773C137.428 34.2773 137.695 34.2773 137.963 34.2597C138.23 34.2435 138.497 34.211 138.764 34.1447V37.0176C138.347 37.0676 137.929 37.1001 137.545 37.1488C137.141 37.1959 136.733 37.218 136.326 37.2151C135.325 37.2151 134.523 37.1163 133.92 36.9364C133.32 36.7552 132.835 36.4766 132.501 36.1154C132.15 35.7543 131.934 35.3106 131.8 34.7683C131.67 34.1583 131.598 33.5374 131.584 32.9139V22.9779H128.728V20.1699H128.694L128.693 20.174ZM141.401 20.174H144.976V22.4544H145.043C145.576 21.4697 146.311 20.7799 147.262 20.3539C148.235 19.9211 149.289 19.7025 150.353 19.7127C151.704 19.7127 152.873 19.9427 153.876 20.4188C154.878 20.8787 155.713 21.5198 156.381 22.3395C157.048 23.1605 157.533 24.1127 157.867 25.1974C158.207 26.3259 158.376 27.499 158.369 28.6776C158.369 29.8097 158.219 30.9094 157.917 31.9617C157.64 32.9767 157.182 33.9331 156.564 34.7845C155.957 35.6053 155.169 36.2742 154.26 36.739C153.325 37.2313 152.24 37.4775 150.971 37.4775C150.416 37.4769 149.862 37.4271 149.316 37.3287C148.772 37.2305 148.24 37.0712 147.731 36.8539C147.226 36.6428 146.753 36.3604 146.327 36.0153C145.907 35.6799 145.541 35.2816 145.242 34.8345H145.174V43.2408H141.401V20.1713V20.174ZM154.594 28.6113C154.595 27.8626 154.494 27.1173 154.294 26.3958C154.109 25.7122 153.803 25.0673 153.391 24.4914C153 23.9435 152.493 23.489 151.906 23.1605C151.275 22.8194 150.568 22.6444 149.852 22.6519C148.265 22.6519 147.062 23.1929 146.261 24.2777C145.459 25.3611 145.058 26.807 145.058 28.6113C145.058 29.4648 145.159 30.2534 145.376 30.9756C145.592 31.6979 145.893 32.3228 146.327 32.8476C146.746 33.3738 147.246 33.7836 147.831 34.0784C148.415 34.3909 149.1 34.5383 149.868 34.5383C150.737 34.5383 151.454 34.3584 152.056 34.0135C152.638 33.6782 153.14 33.2187 153.525 32.6677C153.909 32.1091 154.194 31.4842 154.36 30.7795C154.514 30.067 154.592 29.3403 154.594 28.6113ZM161.257 13.7533H165.031V17.2673H161.257V13.7533ZM161.257 20.1726H165.031V37.0176H161.257V20.1726ZM168.405 13.7533H172.179V37.0176H168.405V13.7533ZM183.752 37.4775C182.381 37.4775 181.162 37.2475 180.095 36.8052C179.071 36.3851 178.145 35.759 177.373 34.9657C176.622 34.1565 176.048 33.2004 175.685 32.1578C175.288 31.0069 175.09 29.7965 175.101 28.5789C175.101 27.298 175.301 26.1172 175.685 25.0324C176.048 23.9903 176.623 23.0347 177.373 22.2258C178.107 21.4373 179.026 20.83 180.095 20.3863C181.162 19.9427 182.381 19.7127 183.752 19.7127C185.121 19.7127 186.34 19.9427 187.409 20.3863C188.478 20.83 189.379 21.4549 190.131 22.2258C190.881 23.0344 191.455 23.9901 191.817 25.0324C192.201 26.1158 192.401 27.298 192.401 28.5789C192.401 29.8773 192.201 31.0744 191.817 32.1578C191.456 33.2006 190.881 34.1568 190.131 34.9657C189.396 35.7543 188.478 36.3616 187.409 36.8052C186.34 37.2475 185.121 37.4775 183.752 37.4775ZM183.752 34.5383C184.587 34.5383 185.321 34.3584 185.939 34.0135C186.541 33.6782 187.06 33.2123 187.459 32.6501C187.859 32.0929 188.143 31.4517 188.344 30.7457C188.528 30.0397 188.628 29.3174 188.628 28.5789C188.628 27.8566 188.528 27.1506 188.344 26.4283C188.172 25.7432 187.872 25.0969 187.459 24.5239C187.059 23.967 186.54 23.5071 185.939 23.178C185.321 22.8331 184.587 22.6519 183.752 22.6519C182.917 22.6519 182.181 22.8331 181.564 23.178C180.967 23.5121 180.449 23.9712 180.045 24.5239C179.638 25.1003 179.338 25.7454 179.16 26.4283C178.975 27.1303 178.879 27.8529 178.874 28.5789C178.874 29.3174 178.976 30.0397 179.16 30.7457C179.343 31.4517 179.643 32.0929 180.045 32.6501C180.445 33.2087 180.946 33.6686 181.564 34.0135C182.181 34.3747 182.917 34.5383 183.752 34.5383ZM193.504 20.174H196.36V15.1153H200.134V20.174H203.54V22.9468H200.134V31.9454C200.134 32.3377 200.151 32.6677 200.183 32.9626C200.217 33.2426 200.301 33.4887 200.418 33.6848C200.546 33.8911 200.74 34.0476 200.968 34.1285C201.22 34.2272 201.536 34.2773 201.971 34.2773C202.237 34.2773 202.505 34.2773 202.772 34.2597C203.04 34.2435 203.306 34.211 203.574 34.1447V37.0176C203.156 37.0676 202.739 37.1001 202.355 37.1488C201.95 37.1958 201.543 37.218 201.136 37.2151C200.134 37.2151 199.332 37.1163 198.73 36.9364C198.13 36.7552 197.645 36.4766 197.311 36.1154C196.961 35.7543 196.743 35.3106 196.61 34.7683C196.48 34.1583 196.407 33.5374 196.393 32.9139V22.9779H193.538V20.1699H193.504V20.174Z" fill="white"/>
</svg>
