<svg width="23" height="23" viewBox="0 0 23 23" fill="none" xmlns="http://www.w3.org/2000/svg">
<path d="M10.7878 2.30179C10.9916 1.6191 11.9584 1.6191 12.1622 2.30179L13.7464 7.60796C13.8389 7.9179 14.1275 8.12754 14.4508 8.11977L19.9868 7.98673C20.6991 7.96961 20.9978 8.88908 20.4116 9.29388L15.8546 12.4402C15.5885 12.624 15.4782 12.9632 15.5856 13.2684L17.4228 18.4923C17.6592 19.1644 16.877 19.7327 16.3109 19.3002L11.9103 15.9386C11.6533 15.7422 11.2966 15.7422 11.0396 15.9386L6.63908 19.3002C6.07291 19.7327 5.29077 19.1644 5.52714 18.4923L7.3644 13.2684C7.47171 12.9632 7.3615 12.624 7.09533 12.4402L2.53839 9.29388C1.9521 8.88908 2.25086 7.96961 2.96312 7.98673L8.49913 8.11977C8.82249 8.12754 9.11104 7.9179 9.20357 7.60796L10.7878 2.30179Z" fill="#FF7F00"/>
</svg>
